<svg width="430" height="380" viewBox="0 0 430 380" fill="none" xmlns="http://www.w3.org/2000/svg">
<path d="M0 0H396C414.778 0 430 15.2223 430 34C430 52.7777 414.778 68 396 68H0V0Z" fill="#E01485"/>
<path d="M0 78H396C414.778 78 430 93.2223 430 112C430 130.778 414.778 146 396 146H0V78Z" fill="#31A5DE"/>
<path d="M0 156H396C414.778 156 430 171.222 430 190C430 208.778 414.778 224 396 224H0V156Z" fill="#7CBB46"/>
<path d="M0 234H396C414.778 234 430 249.222 430 268C430 286.778 414.778 302 396 302H0V234Z" fill="#F7C816"/>
<path d="M0 312H396C414.778 312 430 327.222 430 346C430 364.778 414.778 380 396 380H0V312Z" fill="#EF7E1E"/>
</svg>
