<?xml version="1.0" encoding="utf-8"?>
<!-- Generator: Adobe Illustrator 24.0.1, SVG Export Plug-In . SVG Version: 6.00 Build 0)  -->
<svg version="1.1" id="Layer_1" xmlns="http://www.w3.org/2000/svg" xmlns:xlink="http://www.w3.org/1999/xlink" x="0px" y="0px"
	 viewBox="0 0 430 380" style="enable-background:new 0 0 430 380;" xml:space="preserve">
<style type="text/css">
	.st0{fill:#E01485;}
	.st1{fill:#31A5DE;}
	.st2{fill:#7CBB46;}
	.st3{fill:#F7C816;}
	.st4{fill:#EF7E1E;}
</style>
<path class="st0" d="M430,380H34c-18.8,0-34-15.2-34-34s15.2-34,34-34h396V380z"/>
<path class="st1" d="M430,302H34c-18.8,0-34-15.2-34-34c0-18.8,15.2-34,34-34h396V302z"/>
<path class="st2" d="M430,224H34c-18.8,0-34-15.2-34-34s15.2-34,34-34h396V224z"/>
<path class="st3" d="M430,146H34c-18.8,0-34-15.2-34-34s15.2-34,34-34h396V146z"/>
<path class="st4" d="M430,68H34C15.2,68,0,52.8,0,34S15.2,0,34,0h396V68z"/>
</svg>
