<svg width="1920" height="766" viewBox="0 0 1920 766" fill="none" xmlns="http://www.w3.org/2000/svg">
<g clip-path="url(#clip0_54_413)">
<rect width="1920" height="766" fill="white"/>
<g filter="url(#filter0_f_54_413)">
<path d="M1807 328.5C1807 448.07 1668.57 676.5 1549 676.5C1429.43 676.5 1374 448.07 1374 328.5C1374 208.93 1470.93 112 1590.5 112C1710.07 112 1807 208.93 1807 328.5Z" fill="#F8FFEE"/>
</g>
<g filter="url(#filter1_f_54_413)">
<path d="M1213 185.5C1213 305.07 1074.57 533.5 955 533.5C835.43 533.5 780 305.07 780 185.5C780 65.9304 876.93 -31 996.5 -31C1116.07 -31 1213 65.9304 1213 185.5Z" fill="#E8F9FF"/>
</g>
<g filter="url(#filter2_f_54_413)">
<path d="M530 305.5C530 425.07 391.57 653.5 272 653.5C152.43 653.5 97 425.07 97 305.5C97 185.93 193.93 89 313.5 89C433.07 89 530 185.93 530 305.5Z" fill="#F1EEFF"/>
</g>
</g>
<defs>
<filter id="filter0_f_54_413" x="1186" y="-76" width="809" height="940.5" filterUnits="userSpaceOnUse" color-interpolation-filters="sRGB">
<feFlood flood-opacity="0" result="BackgroundImageFix"/>
<feBlend mode="normal" in="SourceGraphic" in2="BackgroundImageFix" result="shape"/>
<feGaussianBlur stdDeviation="94" result="effect1_foregroundBlur_54_413"/>
</filter>
<filter id="filter1_f_54_413" x="592" y="-219" width="809" height="940.5" filterUnits="userSpaceOnUse" color-interpolation-filters="sRGB">
<feFlood flood-opacity="0" result="BackgroundImageFix"/>
<feBlend mode="normal" in="SourceGraphic" in2="BackgroundImageFix" result="shape"/>
<feGaussianBlur stdDeviation="94" result="effect1_foregroundBlur_54_413"/>
</filter>
<filter id="filter2_f_54_413" x="-91" y="-99" width="809" height="940.5" filterUnits="userSpaceOnUse" color-interpolation-filters="sRGB">
<feFlood flood-opacity="0" result="BackgroundImageFix"/>
<feBlend mode="normal" in="SourceGraphic" in2="BackgroundImageFix" result="shape"/>
<feGaussianBlur stdDeviation="94" result="effect1_foregroundBlur_54_413"/>
</filter>
<clipPath id="clip0_54_413">
<rect width="1920" height="766" fill="white"/>
</clipPath>
</defs>
</svg>
