<svg width="24" height="24" viewBox="0 0 24 24" fill="none" xmlns="http://www.w3.org/2000/svg">
<g id="Frame">
<g id="Group">
<g id="Group_2">
<path id="Vector" d="M9 10.75C7.48 10.75 6.25 9.52 6.25 8C6.25 6.48 7.48 5.25 9 5.25C10.52 5.25 11.75 6.48 11.75 8C11.75 9.52 10.52 10.75 9 10.75ZM9 6.75C8.66848 6.75 8.35054 6.8817 8.11612 7.11612C7.8817 7.35054 7.75 7.66848 7.75 8C7.75 8.33152 7.8817 8.64946 8.11612 8.88388C8.35054 9.1183 8.66848 9.25 9 9.25C9.33152 9.25 9.64946 9.1183 9.88388 8.88388C10.1183 8.64946 10.25 8.33152 10.25 8C10.25 7.66848 10.1183 7.35054 9.88388 7.11612C9.64946 6.8817 9.33152 6.75 9 6.75Z" fill="white"/>
<path id="Vector_2" d="M15 22.75H9C3.57 22.75 1.25 20.43 1.25 15V9C1.25 3.57 3.57 1.25 9 1.25H13C13.41 1.25 13.75 1.59 13.75 2C13.75 2.41 13.41 2.75 13 2.75H9C4.39 2.75 2.75 4.39 2.75 9V15C2.75 19.61 4.39 21.25 9 21.25H15C19.61 21.25 21.25 19.61 21.25 15V10C21.25 9.59 21.59 9.25 22 9.25C22.41 9.25 22.75 9.59 22.75 10V15C22.75 20.43 20.43 22.75 15 22.75Z" fill="white"/>
<path id="Vector_3" d="M18 8.74994C17.59 8.74994 17.25 8.40994 17.25 7.99994V1.99994C17.25 1.69994 17.43 1.41994 17.71 1.30994C17.99 1.19994 18.31 1.25994 18.53 1.46994L20.53 3.46994C20.82 3.75994 20.82 4.23994 20.53 4.52994C20.24 4.81994 19.76 4.81994 19.47 4.52994L18.75 3.80994V7.99994C18.75 8.40994 18.41 8.74994 18 8.74994Z" fill="white"/>
<path id="Vector_4" d="M16.0001 4.74994C15.8101 4.74994 15.6201 4.67994 15.4701 4.52994C15.3306 4.3888 15.2524 4.19837 15.2524 3.99994C15.2524 3.80151 15.3306 3.61108 15.4701 3.46994L17.4701 1.46994C17.7601 1.17994 18.2401 1.17994 18.5301 1.46994C18.8201 1.75994 18.8201 2.23994 18.5301 2.52994L16.5301 4.52994C16.3801 4.67994 16.1901 4.74994 16.0001 4.74994ZM2.67009 19.6999C2.51025 19.6988 2.35493 19.6467 2.22674 19.5513C2.09854 19.4558 2.00415 19.3219 1.9573 19.1691C1.91045 19.0163 1.91358 18.8525 1.96624 18.7016C2.0189 18.5506 2.11834 18.4204 2.25009 18.3299L7.18009 15.0199C8.26009 14.2999 9.75009 14.3799 10.7301 15.2099L11.0601 15.4999C11.5601 15.9299 12.4101 15.9299 12.9001 15.4999L17.0601 11.9299C18.1201 11.0199 19.7901 11.0199 20.8601 11.9299L22.4901 13.3299C22.8001 13.5999 22.8401 14.0699 22.5701 14.3899C22.3001 14.6999 21.8201 14.7399 21.5101 14.4699L19.8801 13.0699C19.3801 12.6399 18.5401 12.6399 18.0401 13.0699L13.8801 16.6399C12.8201 17.5499 11.1501 17.5499 10.0801 16.6399L9.75009 16.3499C9.29009 15.9599 8.53009 15.9199 8.02009 16.2699L3.10009 19.5799C2.96009 19.6599 2.81009 19.6999 2.67009 19.6999Z" fill="white"/>
</g>
</g>
</g>
</svg>
