<svg width="16" height="16" viewBox="0 0 16 16" fill="none" xmlns="http://www.w3.org/2000/svg">
<g id="Frame" clip-path="url(#clip0_13_3861)">
<g id="Group">
<path id="Vector" d="M11.3231 14.2733L11.0995 15.1872C10.4289 15.4519 9.89312 15.6534 9.49418 15.7919C9.09482 15.9309 8.63078 16 8.10207 16C7.29014 16 6.65862 15.8011 6.2082 15.406C5.75778 15.0094 5.53251 14.5068 5.53251 13.8971C5.53251 13.661 5.54885 13.4182 5.58284 13.1709C5.61711 12.9232 5.6716 12.6443 5.74617 12.3326L6.58434 9.36594C6.6589 9.08187 6.72228 8.81271 6.77305 8.55818C6.82453 8.30522 6.84934 8.07249 6.84934 7.86298C6.84934 7.48412 6.7709 7.21912 6.61474 7.07013C6.45857 6.92157 6.16059 6.84614 5.71821 6.84614C5.50153 6.84614 5.27883 6.88084 5.05183 6.94796C4.82383 7.01535 4.62895 7.08046 4.46533 7.14097L4.68946 6.22637C5.23854 6.00281 5.76338 5.81138 6.26542 5.65249C6.76746 5.49318 7.24182 5.41345 7.69051 5.41345C8.49684 5.41345 9.11905 5.60832 9.55599 5.99808C9.99292 6.38813 10.2113 6.89375 10.2113 7.51682C10.2113 7.64573 10.197 7.87288 10.1661 8.19753C10.136 8.5229 10.08 8.82103 9.99823 9.0922L9.16365 12.0469C9.09525 12.2843 9.03373 12.5556 8.98024 12.8609C8.92503 13.1641 8.89865 13.3959 8.89865 13.5513C8.89865 13.9437 8.98612 14.2115 9.1615 14.3539C9.33816 14.4963 9.64246 14.5672 10.0747 14.5672C10.2776 14.5672 10.5084 14.5312 10.765 14.4605C11.0208 14.3898 11.2074 14.3277 11.3231 14.2733ZM11.5347 1.86849C11.5347 2.38329 11.3407 2.82295 10.9508 3.18446C10.5619 3.54725 10.0933 3.7288 9.54509 3.7288C8.99515 3.7288 8.52538 3.54725 8.13204 3.18446C7.73941 2.8228 7.54267 2.38329 7.54267 1.86849C7.54267 1.35469 7.73941 0.91431 8.13204 0.548213C8.52466 0.18269 8.9953 0 9.54509 0C10.0932 0 10.5619 0.18312 10.9508 0.548213C11.341 0.91431 11.5347 1.35483 11.5347 1.86849Z" fill="white"/>
</g>
</g>
<defs>
<clipPath id="clip0_13_3861">
<rect width="16" height="16" fill="white"/>
</clipPath>
</defs>
</svg>
