<svg width="16" height="16" viewBox="0 0 16 16" fill="none" xmlns="http://www.w3.org/2000/svg">
<g id="Group 11">
<path id="Vector" fill-rule="evenodd" clip-rule="evenodd" d="M6.3924 0.156837L5.85815 5.24743L13.165 1.91702C11.3194 0.343631 8.81827 -0.332927 6.3924 0.156837Z" fill="#EF5A70"/>
<path id="Vector_2" fill-rule="evenodd" clip-rule="evenodd" d="M5.34356 0.414795C5.12536 0.49383 4.90749 0.578264 4.68922 0.67632C2.56903 1.64287 1.07125 3.42856 0.397949 5.49241L4.58176 8.49975L5.34356 0.414795Z" fill="#ED1B25"/>
<path id="Vector_3" fill-rule="evenodd" clip-rule="evenodd" d="M2.06143 13.3549L6.72496 11.2329L0.140467 6.50122C0.047998 6.98989 0.000384488 7.48788 0 7.99017V7.99988C0 9.1047 0.228965 10.2268 0.71342 11.2979C1.06497 12.0686 1.52469 12.7578 2.06143 13.3549Z" fill="#FABA1C"/>
<path id="Vector_4" fill-rule="evenodd" clip-rule="evenodd" d="M10.5835 15.5719C10.8276 15.4867 11.0719 15.3919 11.3091 15.2841C13.4812 14.2953 14.9984 12.4467 15.6469 10.3215L11.4395 7.42188L10.5835 15.5719Z" fill="#009E4F"/>
<path id="Vector_5" fill-rule="evenodd" clip-rule="evenodd" d="M9.58016 15.8431L10.1177 10.7526L2.81079 14.0829C4.65358 15.6563 7.15436 16.3329 9.58016 15.8431Z" fill="#00ADED"/>
<path id="Vector_6" fill-rule="evenodd" clip-rule="evenodd" d="M15.8877 9.31285L9.3103 4.78025L13.9793 2.65137C14.5003 3.23957 14.9395 3.91215 15.2817 4.66279C15.969 6.17115 16.1443 7.78797 15.8877 9.31285Z" fill="#C6569E"/>
<path id="Vector_7" fill-rule="evenodd" clip-rule="evenodd" d="M5.76395 4.63425C2.44735 6.86698 4.03971 12.0427 7.99988 12.0427C11.9575 12.0427 13.5542 6.87096 10.2355 4.63425C8.89497 3.73061 7.10511 3.73132 5.76395 4.63425Z" fill="white"/>
</g>
</svg>
