<svg width="32" height="32" viewBox="0 0 32 32" fill="none" xmlns="http://www.w3.org/2000/svg">
<rect x="0.5" y="0.5" width="31" height="31" rx="15.5" stroke="white"/>
<path fill-rule="evenodd" clip-rule="evenodd" d="M10.9501 8.5C8.74093 8.5 6.95007 10.2909 6.95007 12.5V19.5C6.95007 21.7091 8.74094 23.5 10.9501 23.5H21.0499C23.2591 23.5 25.0499 21.7091 25.0499 19.5V12.5C25.0499 10.2909 23.2591 8.5 21.0499 8.5H10.9501ZM18.3779 15.1056L14.9473 13.3903C14.2824 13.0578 13.5 13.5413 13.5 14.2847V17.7153C13.5 18.4587 14.2824 18.9422 14.9473 18.6097L18.3779 16.8944C19.1149 16.5259 19.1149 15.4741 18.3779 15.1056Z" fill="white"/>
</svg>
