<svg width="60" height="56" viewBox="0 0 60 56" fill="none" xmlns="http://www.w3.org/2000/svg">
<path fill-rule="evenodd" clip-rule="evenodd" d="M30.1745 4.53484C29.8994 4.53484 29.2222 4.61042 28.8624 5.32995L23.342 16.3678C22.4683 18.1122 20.7843 19.3245 18.8374 19.6026L6.4784 21.3833C5.66213 21.5012 5.38399 22.1059 5.29934 22.3598C5.22376 22.6047 5.10283 23.2275 5.66515 23.7656L14.6018 32.3516C16.0258 33.7211 16.6727 35.6953 16.3341 37.6271L14.23 49.7503C14.1 50.5091 14.5746 50.9505 14.7862 51.1016C15.01 51.2709 15.6086 51.6065 16.3492 51.2195L27.3991 45.4905C29.1405 44.5926 31.2145 44.5926 32.9498 45.4905L43.9967 51.2165C44.7404 51.6005 45.339 51.2649 45.5657 51.1016C45.7774 50.9505 46.252 50.5091 46.122 49.7503L44.0118 37.6271C43.6732 35.6953 44.3202 33.7211 45.7441 32.3516L54.6808 23.7656C55.2461 23.2275 55.1252 22.6017 55.0466 22.3598C54.965 22.1059 54.6868 21.5012 53.8705 21.3833L41.5116 19.6026C39.5676 19.3245 37.8837 18.1122 37.01 16.3647L31.4835 5.32995C31.1268 4.61042 30.4496 4.53484 30.1745 4.53484ZM15.6539 55.9297C14.4053 55.9297 13.1658 55.5367 12.1046 54.7628C10.2726 53.4205 9.37466 51.2044 9.76465 48.9733L11.8688 36.8501C11.9474 36.3997 11.7932 35.9432 11.4607 35.6227L2.52402 27.0367C0.879382 25.4616 0.289853 23.1337 0.985195 20.9721C1.68658 18.7863 3.54285 17.2233 5.83143 16.8968L18.1904 15.1161C18.6681 15.0496 19.0792 14.7564 19.2848 14.3392L24.8082 3.29834C25.8271 1.26371 27.8829 0 30.1745 0C32.4661 0 34.5219 1.26371 35.5407 3.29834L41.0672 14.3362C41.2758 14.7564 41.6839 15.0496 42.1586 15.1161L54.5175 16.8968C56.8061 17.2233 58.6624 18.7863 59.3638 20.9721C60.0591 23.1337 59.4665 25.4616 57.8219 27.0367L48.8852 35.6227C48.5527 35.9432 48.4015 36.3997 48.4801 36.8471L50.5873 48.9733C50.9743 51.2075 50.0764 53.4235 48.2413 54.7628C46.382 56.1262 43.9604 56.3107 41.9076 55.2404L30.8638 49.5175C30.4314 49.2937 29.9145 49.2937 29.4822 49.5175L18.4383 55.2435C17.5555 55.703 16.6032 55.9297 15.6539 55.9297Z" fill="black"/>
</svg>
