<svg width="20" height="21" viewBox="0 0 20 21" fill="none" xmlns="http://www.w3.org/2000/svg">
<path fill-rule="evenodd" clip-rule="evenodd" d="M9.76458 0C10.6634 0 11.3928 0.729453 11.3928 1.62824V15.4273L16.7487 10.0495C17.3848 9.40908 18.4138 9.41342 19.0499 10.0452C19.686 10.6791 19.6904 11.7103 19.0543 12.3486L10.9174 20.5202C10.8642 20.5723 10.8092 20.6205 10.7511 20.6648L10.9174 20.5202C10.8319 20.6069 10.7375 20.6828 10.6364 20.747C10.6117 20.7604 10.5876 20.7748 10.5632 20.7886C10.5169 20.8171 10.4676 20.8417 10.4172 20.8637C10.4031 20.8678 10.39 20.8733 10.3769 20.8786C10.3265 20.9012 10.2738 20.9195 10.2203 20.9351C10.1871 20.9428 10.154 20.9513 10.1206 20.9587C10.0799 20.9698 10.0389 20.9773 9.99755 20.9833C9.96431 20.9861 9.9296 20.9899 9.89457 20.9927C9.85084 20.9983 9.80778 21 9.76458 21L9.63649 20.9894L9.54374 20.983C9.53931 20.9824 9.5349 20.9817 9.53049 20.9811L9.76458 21C9.64407 21 9.52474 20.9867 9.40871 20.9607C9.37513 20.9513 9.3421 20.9428 9.30949 20.9333C9.25534 20.9195 9.20266 20.9012 9.15107 20.8802C9.13912 20.8733 9.12608 20.8678 9.11313 20.8621C9.06155 20.8417 9.0123 20.8171 8.96437 20.79C8.94152 20.7748 8.91745 20.7604 8.8938 20.7454C8.85307 20.7218 8.8144 20.6948 8.7769 20.666C8.71386 20.6158 8.65338 20.5621 8.59716 20.5043L0.47491 12.3486C-0.16119 11.7103 -0.156849 10.6791 0.479252 10.0452C1.11752 9.41342 2.14657 9.40908 2.7805 10.0495L8.13634 15.4273V1.62824C8.13634 0.729453 8.86579 0 9.76458 0Z" fill="black"/>
</svg>
