<svg width="60" height="66" viewBox="0 0 60 66" fill="none" xmlns="http://www.w3.org/2000/svg">
<path fill-rule="evenodd" clip-rule="evenodd" d="M41.9561 0.480469C43.2013 0.480469 44.2119 1.49109 44.2119 2.73631L44.2133 5.28635C48.605 5.58745 52.2524 7.09174 54.8339 9.6786C57.6522 12.5089 59.1351 16.5785 59.1201 21.4601V48.9002C59.1201 58.9222 52.7555 65.1483 42.514 65.1483H17.0741C6.83257 65.1483 0.468079 58.8349 0.468079 48.6716V21.4541C0.468079 12.0012 6.14395 5.93341 15.4008 5.28738L15.4027 2.73631C15.4027 1.49109 16.4133 0.480469 17.6585 0.480469C18.9037 0.480469 19.9144 1.49109 19.9144 2.73631L19.9135 5.22977H39.6987L39.7002 2.73631C39.7002 1.49109 40.7108 0.480469 41.9561 0.480469ZM54.6083 27.2619H4.97977V48.6716C4.97977 56.3896 9.27489 60.6366 17.0741 60.6366H42.514C50.3132 60.6366 54.6084 56.4678 54.6084 48.9002L54.6083 27.2619ZM43.1823 46.1878C44.4276 46.1878 45.4382 47.1984 45.4382 48.4436C45.4382 49.6889 44.4276 50.6995 43.1823 50.6995C41.9371 50.6995 40.9145 49.6889 40.9145 48.4436C40.9145 47.1984 41.91 46.1878 43.1553 46.1878H43.1823ZM29.8353 46.1878C31.0805 46.1878 32.0911 47.1984 32.0911 48.4436C32.0911 49.6889 31.0805 50.6995 29.8353 50.6995C28.59 50.6995 27.5674 49.6889 27.5674 48.4436C27.5674 47.1984 28.563 46.1878 29.8082 46.1878H29.8353ZM16.4602 46.1878C17.7054 46.1878 18.7161 47.1984 18.7161 48.4436C18.7161 49.6889 17.7054 50.6995 16.4602 50.6995C15.215 50.6995 14.1893 49.6889 14.1893 48.4436C14.1893 47.1984 15.1879 46.1878 16.4331 46.1878H16.4602ZM43.1823 34.4974C44.4276 34.4974 45.4382 35.508 45.4382 36.7532C45.4382 37.9985 44.4276 39.0091 43.1823 39.0091C41.9371 39.0091 40.9145 37.9985 40.9145 36.7532C40.9145 35.508 41.91 34.4974 43.1553 34.4974H43.1823ZM29.8353 34.4974C31.0805 34.4974 32.0911 35.508 32.0911 36.7532C32.0911 37.9985 31.0805 39.0091 29.8353 39.0091C28.59 39.0091 27.5674 37.9985 27.5674 36.7532C27.5674 35.508 28.563 34.4974 29.8082 34.4974H29.8353ZM16.4602 34.4974C17.7054 34.4974 18.7161 35.508 18.7161 36.7532C18.7161 37.9985 17.7054 39.0091 16.4602 39.0091C15.215 39.0091 14.1893 37.9985 14.1893 36.7532C14.1893 35.508 15.1879 34.4974 16.4331 34.4974H16.4602ZM39.6987 9.74146H19.9135L19.9144 12.635C19.9144 13.8802 18.9037 14.8908 17.6585 14.8908C16.4133 14.8908 15.4027 13.8802 15.4027 12.635L15.4011 9.80974C8.66292 10.3758 4.97977 14.4603 4.97977 21.4541V22.7502H54.6083L54.6084 21.4541C54.6204 17.7395 53.6218 14.852 51.6396 12.8669C49.8997 11.1218 47.3561 10.0795 44.2145 9.81119L44.2119 12.635C44.2119 13.8802 43.2013 14.8908 41.9561 14.8908C40.7108 14.8908 39.7002 13.8802 39.7002 12.635L39.6987 9.74146Z" fill="black"/>
</svg>
