<svg width="50" height="49" viewBox="0 0 50 49" fill="none" xmlns="http://www.w3.org/2000/svg">
<path fill-rule="evenodd" clip-rule="evenodd" d="M10.9316 0.00126786C13.5535 0.0364768 15.4219 2.00113 17.7856 4.48688C18.3701 5.09952 19.0015 5.76849 19.708 6.47267C23.1327 9.89967 22.1585 12.6953 21.3722 14.9392C20.5178 17.3874 19.7784 19.5 24.2054 23.9269C28.6323 28.3538 30.7425 27.6144 33.1883 26.753C35.4347 25.969 38.2232 24.9879 41.6549 28.4149C42.352 29.112 43.0093 29.7364 43.6196 30.3161C46.1147 32.6916 48.0864 34.567 48.1196 37.196C48.1451 39.4353 46.7837 41.7215 43.4224 45.0828L41.9342 44.0734L43.1947 45.3011C42.4506 46.0639 40.4719 48.0966 36.5965 48.1201H36.5261C30.6768 48.1201 23.0505 43.4632 13.8586 34.2736C4.62919 25.0465 -0.0348154 17.3968 0.00019565 11.5357C0.0215189 7.66273 2.0519 5.67929 2.81476 4.93521L2.87987 4.8641L3.03775 4.70518C6.40607 1.33686 8.72047 -0.0480246 10.9316 0.00126786ZM10.887 3.52216H10.8682C9.81415 3.52216 8.21338 4.57843 5.98081 6.74705L5.5325 7.18731L5.53758 7.18623C5.5404 7.18623 5.49928 7.23018 5.43398 7.29676L5.27704 7.45382C4.709 8.00543 3.53302 9.15324 3.52117 11.5545C3.50251 14.9134 5.71128 21.1501 16.3467 31.7832C26.9305 42.3646 33.1578 44.5992 36.5261 44.5992H36.5754C38.9767 44.5851 40.1221 43.4092 40.6737 42.8435C40.8404 42.6721 40.9765 42.543 41.0728 42.4656C43.413 40.1113 44.6101 38.3626 44.5984 37.2382C44.5843 36.0928 43.1595 34.7407 41.1901 32.8653C40.5634 32.2714 39.8827 31.6212 39.1644 30.903C37.3007 29.0463 36.3829 29.3632 34.3526 30.0767C31.5476 31.0602 27.7051 32.4076 21.7173 26.415C15.727 20.4271 17.0697 16.5847 18.0485 13.7773C18.7574 11.7493 19.0813 10.8268 17.2199 8.96311C16.4923 8.23546 15.8374 7.54537 15.2341 6.9116C13.3704 4.95399 12.0254 3.53859 10.887 3.52216ZM31.0925 8.35165C35.9771 9.29994 39.7492 13.0696 40.6998 17.9566C40.8852 18.9143 40.2632 19.8368 39.3102 20.0222C39.1952 20.0434 39.0825 20.0551 38.9699 20.0551C38.1436 20.0551 37.4089 19.473 37.2446 18.6327C36.5686 15.1587 33.8904 12.4805 30.4211 11.8068C29.4658 11.6214 28.8438 10.6989 29.0292 9.74358C29.2146 8.78824 30.1535 8.16387 31.0925 8.35165ZM30.9519 0.0146472C40.524 1.07796 47.9578 8.50234 49.0305 18.0721C49.1384 19.0392 48.4436 19.91 47.4789 20.018C47.4132 20.025 47.3451 20.0297 47.2794 20.0297C46.3945 20.0297 45.634 19.3655 45.533 18.4665C44.6434 10.5421 38.4889 4.39229 30.5622 3.51207C29.5975 3.40409 28.9003 2.53561 29.0083 1.56853C29.1139 0.60381 29.9754 -0.10741 30.9519 0.0146472Z" fill="black"/>
</svg>
