<svg width="24" height="26" viewBox="0 0 24 26" fill="none" xmlns="http://www.w3.org/2000/svg">
<path d="M4.5 9.068C4.5 7.96386 3.60414 7.068 2.5 7.068C1.39586 7.068 0.5 7.96386 0.5 9.068V22.788C0.5 23.8921 1.39586 24.788 2.5 24.788C3.60414 24.788 4.5 23.8921 4.5 22.788V9.068ZM13.834 2.5C13.834 1.39586 12.9381 0.5 11.834 0.5C10.7299 0.5 9.834 1.39586 9.834 2.5V22.786C9.834 23.8901 10.7299 24.786 11.834 24.786C12.9381 24.786 13.834 23.8901 13.834 22.786V2.5ZM23.0146 16.318C23.0146 15.2139 22.1187 14.318 21.0146 14.318C19.9105 14.318 19.0146 15.2139 19.0146 16.318V22.786C19.0146 23.8901 19.9105 24.786 21.0146 24.786C22.1187 24.786 23.0146 23.8901 23.0146 22.786V16.318Z" fill="black" stroke="black"/>
</svg>
