<svg width="48" height="47" viewBox="0 0 48 47" fill="none" xmlns="http://www.w3.org/2000/svg">
<path d="M43.739 14.5391C43.5279 14.2226 43.2958 13.906 43.1059 13.5684C42.3041 12.1546 41.0802 11.4161 39.4764 11.4372C36.7332 11.5005 33.99 11.6271 31.2679 11.7326C30.6981 11.7537 30.1495 11.7748 29.5797 11.7959C27.6173 11.8592 25.6548 11.9436 23.6713 12.0069C23.3336 12.028 22.996 12.0069 22.4263 12.0069C25.2117 9.70682 26.4356 6.68927 27.9971 3.88275C28.2292 3.46072 28.4614 3.01759 28.6935 2.57445C29.3898 1.30835 30.466 0.590891 31.8798 0.422078C33.2303 0.274366 34.6019 0.211062 35.9735 0.126655C37.1974 0.0422487 38.147 0.590892 38.6957 1.60377C39.4342 2.95428 40.0462 4.38919 40.6159 5.80301C41.5866 8.293 42.5151 10.8041 43.4224 13.3152C43.5913 13.7161 43.6335 14.1382 43.739 14.5391Z" fill="black"/>
<path d="M23.1229 0.23212C22.6586 0.337628 22.1733 0.422036 21.709 0.569748C19.8732 1.13949 19.3034 2.67991 18.8392 4.30474C17.4676 9.09482 16.0749 13.8849 14.6822 18.6961C14.6189 18.886 14.5345 19.0548 14.4079 19.3502C13.0995 16.2694 10.6729 14.2436 8.58379 11.9435C8.54159 11.9013 8.47828 11.838 8.43608 11.7958C6.47362 10.2976 5.92498 8.35627 6.57913 5.99288C6.87456 4.98 7.10667 3.94601 7.381 2.93313C7.63422 1.96245 8.28837 1.32941 9.21684 1.05508C10.1664 0.780762 11.116 0.506442 12.0867 0.443137C15.5684 0.253221 19.0291 0.147712 22.5109 0C22.7219 0 22.9329 0 23.1229 0C23.144 0.0844067 23.1229 0.168815 23.1229 0.23212Z" fill="black"/>
<path d="M11.728 38.7215C11.8546 38.7637 11.9812 38.7848 12.0867 38.8481C13.9225 39.861 15.5474 39.5022 17.1511 38.2361C21.0549 35.1342 25.022 32.0745 28.9469 29.0147C29.2213 28.8037 29.4956 28.6349 29.9387 28.3184C29.1791 31.6946 29.8332 34.8177 30.3607 37.8985C30.7617 40.2408 30.4663 42.1189 28.5038 43.6171C27.723 44.2079 27.0056 44.8832 26.267 45.5373C25.3174 46.3603 24.2202 46.4658 23.1018 46.0438C22.2577 45.7272 21.3925 45.3474 20.6329 44.8621C17.8263 43.0473 15.062 41.1693 12.2766 39.3334C12.0656 39.1857 11.8546 39.0169 11.6436 38.8481C11.6858 38.8059 11.7069 38.7637 11.728 38.7215Z" fill="black"/>
<path d="M3.24498 16.2905C3.07617 18.4218 4.40557 19.6035 5.946 20.6375C10.103 23.444 14.2812 26.2294 18.4593 29.0148C18.5648 29.0992 18.6914 29.1836 18.9657 29.3736C18.2694 29.5002 17.6785 29.5213 17.1721 29.7112C15.5895 30.302 14.0279 30.8929 12.4875 31.5681C11.3691 32.0535 10.2718 32.6232 9.17455 33.193C7.73964 33.9526 6.26252 34.0581 4.82761 33.2774C3.54041 32.581 2.31651 31.7369 1.07151 30.9562C0.311846 30.4708 0.0797278 29.7323 0.0164228 28.8882C-0.0890856 27.2845 0.332947 25.7441 0.733879 24.2247C1.40913 21.7558 2.10549 19.3081 2.80185 16.8392C2.86515 16.6492 2.92846 16.4593 3.01286 16.2694C3.07617 16.3116 3.16058 16.2905 3.24498 16.2905Z" fill="black"/>
<path d="M32.3447 17.5144C35.0246 19.1814 38.0844 19.4557 41.0808 20.0255C41.735 20.1521 42.3891 20.2787 43.0433 20.3842C44.4149 20.6163 45.3645 21.4182 45.9342 22.621C46.5251 23.8871 47.0526 25.1954 47.559 26.5037C48.0233 27.6643 47.749 28.7405 46.9049 29.6268C46.0608 30.513 45.1746 31.3571 44.2039 32.1378C41.7772 34.1003 39.3083 36.0206 36.8605 37.9619C36.755 38.0463 36.6495 38.1096 36.4385 38.0674C36.6495 37.8142 36.8605 37.561 37.0926 37.3289C38.1477 36.2949 38.4853 35.071 38.0211 33.6572C37.2614 31.4204 36.4807 29.2047 35.6788 27.0101C34.6448 24.1403 33.5686 21.2705 32.5136 18.4007C32.4502 18.1263 32.408 17.8098 32.3447 17.5144C32.3447 17.4933 32.3447 17.5144 32.3447 17.5144Z" fill="black"/>
</svg>
