<svg width="60" height="49" viewBox="0 0 60 49" fill="none" xmlns="http://www.w3.org/2000/svg">
<path fill-rule="evenodd" clip-rule="evenodd" d="M48.549 0.314697C54.6691 0.314697 59.6486 5.24482 59.6486 11.3019L59.6513 18.4147C59.6513 18.9576 59.4347 19.484 59.0481 19.8679C58.6642 20.2545 58.1405 20.4712 57.5948 20.4712C55.4369 20.4712 53.682 22.1931 53.682 24.31C53.682 26.4268 55.4369 28.1488 57.5948 28.1488C58.73 28.1488 59.6513 29.0701 59.6513 30.2053V37.3126C59.6513 43.3696 54.6719 48.2998 48.5517 48.2998H11.7979C5.67772 48.2998 0.698242 43.3696 0.698242 37.3126V30.2053C0.698242 29.0701 1.61956 28.1488 2.75475 28.1488C4.9127 28.1488 6.66759 26.4268 6.66759 24.31C6.66759 22.2535 4.984 20.7015 2.75475 20.7015C2.20909 20.7015 1.68536 20.4849 1.30148 20.0983C0.914861 19.7144 0.698242 19.1879 0.698242 18.645L0.700984 11.3019C0.700984 5.24482 5.68046 0.314697 11.8006 0.314697H48.549ZM48.549 4.4277H37.3013L37.3029 9.69564C37.3029 10.8308 36.3816 11.7521 35.2464 11.7521C34.1112 11.7521 33.1899 10.8308 33.1899 9.69564L33.1883 4.4277H11.8006C7.9481 4.4277 4.81399 7.51246 4.81399 11.3019L4.81125 16.8353C8.28537 17.688 10.7806 20.6659 10.7806 24.31C10.7806 27.9897 8.2415 31.0937 4.81125 31.9958V37.3126C4.81125 41.102 7.94536 44.1868 11.7979 44.1868H33.1883L33.1899 40.1053C33.1899 38.9674 34.1112 38.0488 35.2464 38.0488C36.3816 38.0488 37.3029 38.9674 37.3029 40.1053L37.3013 44.1868H48.5517C52.4042 44.1868 55.5383 41.102 55.5383 37.3126V31.9958C52.1081 31.0937 49.569 27.9897 49.569 24.31C49.569 20.6275 52.1053 17.5263 55.5383 16.6241L55.5356 11.3019C55.5356 7.51246 52.4015 4.4277 48.549 4.4277ZM35.2464 15.4081C36.3816 15.4081 37.3029 16.3294 37.3029 17.4646V30.6838C37.3029 31.819 36.3816 32.7403 35.2464 32.7403C34.1112 32.7403 33.1899 31.819 33.1899 30.6838V17.4646C33.1899 16.3294 34.1112 15.4081 35.2464 15.4081Z" fill="black"/>
</svg>
