<svg width="23" height="26" viewBox="0 0 23 26" fill="none" xmlns="http://www.w3.org/2000/svg">
<path d="M20.3666 8.55745C20.6213 8.55745 20.8525 8.66861 21.0352 8.85645C21.2054 9.05705 21.2912 9.30622 21.2663 9.56944C21.2663 9.65633 20.5853 18.2685 20.1963 21.8935C19.9528 24.1181 18.5187 25.4687 16.3676 25.5057C14.7135 25.5428 13.0968 25.5556 11.5048 25.5556C9.81477 25.5556 8.16197 25.5428 6.55763 25.5057C4.47859 25.4559 3.04326 24.081 2.81212 21.8935C2.41197 18.2557 1.74339 9.65633 1.73097 9.56944C1.71854 9.30622 1.80304 9.05705 1.97454 8.85645C2.14354 8.66861 2.38711 8.55745 2.64311 8.55745H20.3666ZM14.1383 0C15.2679 0 16.277 0.788381 16.569 1.91281L16.7778 2.84558C16.9468 3.60585 17.6054 4.14379 18.3635 4.14379H22.0891C22.5862 4.14379 23 4.55651 23 5.08167V5.56722C23 6.07961 22.5862 6.5051 22.0891 6.5051H0.912146C0.413821 6.5051 0 6.07961 0 5.56722V5.08167C0 4.55651 0.413821 4.14379 0.912146 4.14379H4.63778C5.39459 4.14379 6.05322 3.60585 6.22347 2.84686L6.41858 1.97542C6.7218 0.788381 7.71969 0 8.86174 0H14.1383Z" fill="#C4C4C4"/>
<path d="M20.3666 8.55745C20.6213 8.55745 20.8525 8.66861 21.0352 8.85645C21.2054 9.05705 21.2912 9.30622 21.2663 9.56944C21.2663 9.65633 20.5853 18.2685 20.1963 21.8935C19.9528 24.1181 18.5187 25.4687 16.3676 25.5057C14.7135 25.5428 13.0968 25.5556 11.5048 25.5556C9.81477 25.5556 8.16197 25.5428 6.55763 25.5057C4.47859 25.4559 3.04326 24.081 2.81212 21.8935C2.41197 18.2557 1.74339 9.65633 1.73097 9.56944C1.71854 9.30622 1.80304 9.05705 1.97454 8.85645C2.14354 8.66861 2.38711 8.55745 2.64311 8.55745H20.3666ZM14.1383 0C15.2679 0 16.277 0.788381 16.569 1.91281L16.7778 2.84558C16.9468 3.60585 17.6054 4.14379 18.3635 4.14379H22.0891C22.5862 4.14379 23 4.55651 23 5.08167V5.56722C23 6.07961 22.5862 6.5051 22.0891 6.5051H0.912146C0.413821 6.5051 0 6.07961 0 5.56722V5.08167C0 4.55651 0.413821 4.14379 0.912146 4.14379H4.63778C5.39459 4.14379 6.05322 3.60585 6.22347 2.84686L6.41858 1.97542C6.7218 0.788381 7.71969 0 8.86174 0H14.1383Z" fill="black"/>
</svg>
