<svg width="39" height="46" viewBox="0 0 39 46" fill="none" xmlns="http://www.w3.org/2000/svg">
<path fill-rule="evenodd" clip-rule="evenodd" d="M25.0127 0.87561C25.11 0.87561 25.2055 0.883809 25.2984 0.899553L25.6087 0.901457C26.0712 0.901457 26.5133 1.08964 26.8353 1.42292L38.3188 13.3871C38.6226 13.7022 38.7929 14.1262 38.7929 14.5638V35.3452C38.8335 41.0337 34.4033 45.6815 28.7057 45.9128L10.5248 45.9151H10.2777C4.72311 45.7895 0.268238 41.2972 0.13252 35.7968L0.131836 11.0564C0.263335 5.43138 4.90889 0.901457 10.4931 0.901457L24.7269 0.899553C24.8198 0.883809 24.9153 0.87561 25.0127 0.87561ZM23.312 4.3014L10.4976 4.3023C6.74081 4.3023 3.6211 7.34493 3.53268 11.0972V35.3452C3.44879 39.229 6.50956 42.4281 10.3548 42.5142H28.6377C32.4217 42.3578 35.419 39.2131 35.392 35.3588L35.3918 16.7077L30.8349 16.71C26.6859 16.6986 23.3122 13.3159 23.3122 9.17141L23.312 4.3014ZM24.5891 29.4611C25.5278 29.4611 26.2896 30.2229 26.2896 31.1615C26.2896 32.1001 25.5278 32.8619 24.5891 32.8619H12.3461C11.4075 32.8619 10.6457 32.1001 10.6457 31.1615C10.6457 30.2229 11.4075 29.4611 12.3461 29.4611H24.5891ZM19.9529 20.9544C20.8915 20.9544 21.6533 21.7162 21.6533 22.6549C21.6533 23.5935 20.8915 24.3553 19.9529 24.3553H12.344C11.4054 24.3553 10.6436 23.5935 10.6436 22.6549C10.6436 21.7162 11.4054 20.9544 12.344 20.9544H19.9529ZM26.7129 6.20814L26.7131 9.17141C26.7131 11.4477 28.5654 13.3023 30.8394 13.3091L33.5281 13.3068L26.7129 6.20814Z" fill="black"/>
</svg>
