<svg width="48" height="44" viewBox="0 0 48 44" fill="none" xmlns="http://www.w3.org/2000/svg">
<path fill-rule="evenodd" clip-rule="evenodd" d="M34.7427 0.444092C42.131 0.444092 47.7022 6.47232 47.7022 14.4663V29.7044C47.7022 33.7957 46.2556 37.492 43.6264 40.1146C41.2679 42.4642 38.2083 43.7089 34.7782 43.7089H12.9173C9.49384 43.7089 6.43647 42.4664 4.07576 40.1146C1.4466 37.492 0 33.7957 0 29.7044V14.4663C0 6.47232 5.57117 0.444092 12.9595 0.444092H34.7427ZM34.7427 3.77215H12.9595C7.37942 3.77215 3.32806 8.26947 3.32806 14.4663V29.7044C3.32806 32.906 4.42854 35.7659 6.42537 37.7561C8.14709 39.4756 10.3946 40.3808 12.924 40.3808H34.7427C34.7472 40.3764 34.7649 40.3808 34.7782 40.3808C37.3098 40.3808 39.5551 39.4756 41.2768 37.7561C43.2759 35.7659 44.3741 32.906 44.3741 29.7044V14.4663C44.3741 8.26947 40.3228 3.77215 34.7427 3.77215ZM38.2394 14.0421C38.8185 14.7543 38.7098 15.8015 37.9976 16.3828L28.1376 24.3968C26.8907 25.3863 25.3997 25.8811 23.911 25.8811C22.4267 25.8811 20.9468 25.3908 19.7088 24.4101L9.75787 16.3873C9.04123 15.8104 8.93029 14.761 9.50494 14.0465C10.084 13.3343 11.1312 13.2212 11.8457 13.7958L21.7877 21.8098C23.0368 22.7993 24.7963 22.7993 26.0543 21.8009L35.8964 13.8003C36.6109 13.2167 37.6581 13.3277 38.2394 14.0421Z" fill="black"/>
</svg>
