<svg width="22" height="16" viewBox="0 0 22 16" fill="none" xmlns="http://www.w3.org/2000/svg">
<g id="Frame 245">
<path id="Vector" d="M19.328 0H2.49018C1.82998 0.000769914 1.19704 0.263375 0.730208 0.730208C0.263375 1.19704 0.000769914 1.82998 0 2.49018V13.5098C0.000769914 14.17 0.263375 14.803 0.730208 15.2698C1.19704 15.7366 1.82998 15.9992 2.49018 16H19.328C19.9882 15.9992 20.6211 15.7366 21.088 15.2698C21.5548 14.803 21.8174 14.17 21.8182 13.5098V2.49018C21.8174 1.82998 21.5548 1.19704 21.088 0.730208C20.6211 0.263375 19.9882 0.000769914 19.328 0ZM2.49018 1.45455H19.328C19.8982 1.45455 20.3636 1.92 20.3636 2.49018V4.64145L13.8982 7.87418C12.9694 8.33583 11.9463 8.57607 10.9091 8.57607C9.87189 8.57607 8.84879 8.33583 7.92 7.87418L1.45455 4.64145V2.49018C1.45455 1.92 1.92 1.45455 2.49018 1.45455ZM19.328 14.5455H2.49018C1.92 14.5455 1.45455 14.08 1.45455 13.5098V6.26764L7.26909 9.17527C7.91345 9.49527 9.20218 10.0298 10.9091 10.0298C11.6291 10.0298 13.0211 9.93455 14.5491 9.17527L20.3636 6.26764V13.5098C20.3636 14.08 19.8982 14.5455 19.328 14.5455Z" fill="#B3B2B2"/>
</g>
</svg>
