<svg width="25" height="23" viewBox="0 0 25 23" fill="none" xmlns="http://www.w3.org/2000/svg">
<ellipse cx="12.5" cy="11.5" rx="12.5" ry="11.5" fill="#323E48"/>
<path d="M12.5 6C14.0512 6 15.522 6.53818 16.8024 7.53455C18.0829 8.52364 19.1732 9.97091 19.9561 11.7818C20.0146 11.92 20.0146 12.08 19.9561 12.2109C18.3902 15.8327 15.6024 18 12.5 18H12.4927C9.39756 18 6.60976 15.8327 5.0439 12.2109C4.98537 12.08 4.98537 11.92 5.0439 11.7818C6.60976 8.16 9.39756 6 12.4927 6H12.5ZM12.5 9.09091C10.8829 9.09091 9.57317 10.3927 9.57317 12C9.57317 13.6 10.8829 14.9018 12.5 14.9018C14.1098 14.9018 15.4195 13.6 15.4195 12C15.4195 10.3927 14.1098 9.09091 12.5 9.09091ZM12.5009 10.1802C13.5033 10.1802 14.3228 10.9948 14.3228 11.9984C14.3228 12.9948 13.5033 13.8093 12.5009 13.8093C11.4911 13.8093 10.6716 12.9948 10.6716 11.9984C10.6716 11.8748 10.6862 11.7584 10.7082 11.642H10.7448C11.557 11.642 12.2155 11.002 12.2448 10.202C12.3253 10.1875 12.4131 10.1802 12.5009 10.1802Z" fill="#F7F7F7"/>
</svg>
