<svg width="48" height="48" viewBox="0 0 80 80" fill="none" xmlns="http://www.w3.org/2000/svg">
<path fill-rule="evenodd" clip-rule="evenodd" d="M57.3146 0C70.8818 0 80 9.50777 80 23.6551V56.3449C80 70.4922 70.8818 80 57.3146 80H22.6453C9.0982 80 0 70.4922 0 56.3449V23.6551C0 9.50777 9.0982 0 22.6453 0H57.3146ZM57.3146 6.01504H22.6453C12.5411 6.01504 6.01202 12.9404 6.01202 23.6551V56.3449C6.01202 67.0637 12.5411 73.985 22.6453 73.985H57.3146C67.4429 73.985 73.988 67.0637 73.988 56.3449V23.6551C73.988 12.9404 67.4429 6.01504 57.3146 6.01504Z" fill="black"/>
<path fill-rule="evenodd" clip-rule="evenodd" d="M53.6495 22.9365C52.2534 22.9343 50.9605 23.0215 49.7191 23.3622L49.7149 23.3633C45.7436 24.4407 42.6376 27.795 41.6034 32.0491C41.5644 32.2095 41.5284 32.3711 41.4953 32.534C41.3555 33.2232 41.2696 33.9339 41.2425 34.6607C41.1957 35.902 41.1954 37.1357 41.2046 38.4011C41.2069 38.7157 41.2097 39.0323 41.2127 39.3514C41.2194 40.0873 41.2262 40.8371 41.2262 41.608V43.0763H32.9492V49.401H41.1569V75.1984V76.6667H38.8858V75.1984H38.2077V52.3375H30V40.1398H38.2699C38.2681 39.9133 38.266 39.6864 38.264 39.4592C38.2518 38.1067 38.2395 36.7456 38.2699 35.4003C38.2764 35.1167 38.2847 34.8337 38.2953 34.5516M53.6495 22.9365C54.2497 22.9375 54.8501 22.9546 55.4734 22.9723L53.6495 22.9365ZM55.4734 22.9723C55.5775 22.9753 55.6822 22.9783 55.7877 22.9812L55.4734 22.9723ZM55.7877 22.9812C56.0597 22.9887 56.3357 22.9959 56.6145 23.0011L55.7877 22.9812ZM56.6145 23.0011V29.2915H52.825L52.8152 29.2916C51.0892 29.3031 49.5503 29.8704 48.4494 31.0476C47.3608 32.2115 46.8585 33.8023 46.8483 35.5687L46.8483 40.2743L46.8483 43.1323H56.5608C56.4248 44.0177 56.2913 44.8935 56.1581 45.7672L56.1563 45.7792C55.9708 46.9964 55.7859 48.2094 55.5958 49.4383H46.9003V75.1984H48.3749H49.8495V52.3748H58.1223L58.3167 51.1325C58.5737 49.489 58.824 47.8476 59.0744 46.2051C59.2935 44.7677 59.5127 43.3295 59.7368 41.8887L60 40.1958H49.7975V35.5816C49.8054 34.3441 50.1513 33.5367 50.6077 33.0487C51.0516 32.5741 51.7537 32.2362 52.8303 32.228H59.5637V21.0364L59.205 20.6498C59.1877 20.6287 59.1636 20.6004 59.1356 20.5703C59.0898 20.5208 58.9907 20.4189 58.8437 20.3217C58.7033 20.2289 58.4096 20.0677 58.0025 20.0677L57.9738 20.068C57.2887 20.0813 56.594 20.0659 55.8699 20.0458C55.7685 20.043 55.6664 20.0401 55.5637 20.0372C54.9424 20.0195 54.2976 20.0011 53.6542 20C52.1506 19.9976 50.5525 20.0877 48.9375 20.5307C43.0668 22.1244 38.8916 27.4853 38.345 33.7532C38.3219 34.0178 38.3053 34.284 38.2953 34.5516" fill="black"/>
<path d="M53.6495 22.9365C52.2534 22.9343 50.9605 23.0215 49.7191 23.3622L49.7149 23.3633C45.7436 24.4407 42.6376 27.795 41.6034 32.0491L45.9724 28.7441L53.6495 22.9365Z" fill="black"/>
<path d="M41.2425 34.6607C41.1957 35.902 41.1954 37.1357 41.2046 38.4011L46.8483 40.2743L46.8483 35.5687C46.8585 33.8023 47.3608 32.2115 48.4494 31.0476C49.5503 29.8704 51.0892 29.3031 52.8152 29.2916L52.825 29.2915H56.6145V23.0011L41.4953 32.534C41.3555 33.2232 41.2696 33.9339 41.2425 34.6607Z" fill="black"/>
<path d="M41.2127 39.3514C41.2194 40.0873 41.2262 40.8371 41.2262 41.608V43.0763H32.9492V49.401H41.1569V75.1984H46.9003V49.4383H55.5958C55.7859 48.2094 55.9708 46.9964 56.1563 45.7792L56.1581 45.7672C56.2913 44.8935 56.4248 44.0177 56.5608 43.1323H46.8483L46.8483 40.2743L41.2046 38.4011C41.2069 38.7157 41.2097 39.0323 41.2127 39.3514Z" fill="black"/>
<path d="M41.6034 32.0491L38.2953 34.5516L41.4953 32.534C41.5284 32.3711 41.5644 32.2095 41.6034 32.0491Z" fill="black"/>
</svg>
