<svg width="20" height="20" viewBox="0 0 20 20" fill="none" xmlns="http://www.w3.org/2000/svg">
<path d="M7.04997 0.000164943C7.98097 -0.00966423 8.84996 0.420329 9.41996 1.15032L10.3 2.3203C10.58 2.67029 11 2.88029 11.45 2.88029H14.5199C18.2099 2.88029 20.0099 4.85025 20 8.89019V13.7601C20 17.62 17.6199 20 13.7499 20H6.23997C2.38999 20 0 17.62 0 13.7501V6.24023C0 2.1003 1.83999 0.000164943 5.46998 0.000164943H7.04997ZM14.6299 11.7901H5.36998C4.94998 11.7901 4.61998 12.1201 4.61998 12.5401C4.61998 12.9501 4.94998 13.2901 5.36998 13.2901H14.6299C15.0399 13.2901 15.3699 12.9501 15.3699 12.5401C15.3699 12.1201 15.0399 11.7901 14.6299 11.7901Z" fill="#F7C916"/>
</svg>
