<svg width="59" height="59" viewBox="0 0 59 59" fill="none" xmlns="http://www.w3.org/2000/svg">
<path fill-rule="evenodd" clip-rule="evenodd" d="M41.9966 0.601562C51.8118 0.601562 58.4065 7.48873 58.4065 17.7355V41.3917C58.4065 51.6385 51.8118 58.5256 41.9908 58.5256H16.8865C7.07418 58.5256 0.482422 51.6385 0.482422 41.3917V17.7355C0.482422 7.48873 7.07418 0.601562 16.8865 0.601562H41.9966ZM41.9966 4.94587H16.8865C9.56202 4.94587 4.82673 9.96499 4.82673 17.7355V41.3917C4.82673 49.1622 9.56202 54.1813 16.8865 54.1813H41.9908C49.324 54.1813 54.0622 49.1622 54.0622 41.3917V17.7355C54.0622 9.96499 49.324 4.94587 41.9966 4.94587ZM29.4271 27.3914C30.6261 27.3914 31.5992 28.3646 31.5992 29.5636V41.1484C31.5992 42.3474 30.6261 43.3206 29.4271 43.3206C28.2281 43.3206 27.2549 42.3474 27.2549 41.1484V29.5636C27.2549 28.3646 28.2281 27.3914 29.4271 27.3914ZM29.4413 15.6737C31.0429 15.6737 32.3375 16.9683 32.3375 18.5699C32.3375 20.1715 31.0429 21.4661 29.4413 21.4661C27.8397 21.4661 26.5306 20.1715 26.5306 18.5699C26.5306 16.9683 27.8136 15.6737 29.4123 15.6737H29.4413Z" fill="black"/>
</svg>
