<svg width="49" height="49" viewBox="0 0 49 49" fill="none" xmlns="http://www.w3.org/2000/svg">
<path fill-rule="evenodd" clip-rule="evenodd" d="M34.8361 0C43.0823 0 48.6244 5.77887 48.6244 14.3777V34.2467C48.6244 42.8455 43.0823 48.6244 34.8361 48.6244H13.7639C5.52993 48.6244 0 42.8455 0 34.2467V14.3777C0 5.77887 5.52993 0 13.7639 0H34.8361ZM34.8361 3.65597H13.7639C7.62253 3.65597 3.65414 7.8652 3.65414 14.3777V34.2467C3.65414 40.7616 7.62253 44.9684 13.7639 44.9684H34.8361C40.9921 44.9684 44.9702 40.7616 44.9702 34.2467V14.3777C44.9702 7.8652 40.9921 3.65597 34.8361 3.65597Z" fill="black"/>
<path d="M24.3625 13.1674C30.5816 13.21 35.5723 18.158 35.5638 24.3857C35.5638 30.5964 30.5987 35.57 24.3881 35.5786C18.1774 35.5871 13.1697 30.639 13.1611 24.3943C13.1526 18.1666 18.1433 13.2271 24.3625 13.1674ZM24.3625 31.5945C28.2868 31.6372 31.5883 28.4039 31.5883 24.4113C31.5883 20.3932 28.3806 17.177 24.3795 17.1599C20.387 17.1429 17.1452 20.4444 17.1537 24.3943C17.1537 28.3783 20.4467 31.6372 24.3625 31.5945Z" fill="black"/>
<path d="M35.9651 15.3855C34.4977 15.3769 33.346 14.2082 33.3545 12.7238C33.3631 11.282 34.5574 10.1132 35.9992 10.1303C37.4495 10.1474 38.6097 11.3161 38.6097 12.7579C38.6268 14.2252 37.4409 15.394 35.9651 15.3855Z" fill="black"/>
</svg>
