<svg width="75" height="75" viewBox="0 0 75 75" fill="none" xmlns="http://www.w3.org/2000/svg">
<path d="M68.0684 15.8538C68.0671 15.8296 68.0644 15.8054 68.0603 15.7814C67.9666 15.6475 67.8514 15.5323 67.7548 15.401C67.0546 14.4471 66.3132 13.5291 65.5309 12.6466C65.3165 12.4055 65.1021 12.167 64.8824 11.9312C64.0768 11.0685 63.2318 10.2459 62.3476 9.46359C62.1842 9.31885 62.0314 9.16892 61.868 9.02684C59.6887 7.16005 57.3026 5.549 54.7565 4.22556C54.6546 4.17202 54.5475 4.12649 54.4429 4.0728C53.309 3.49664 52.1464 2.97873 50.9595 2.52141C50.6915 2.42502 50.4476 2.3338 50.1931 2.25342C49.1374 1.87303 48.0656 1.53989 46.9777 1.25401C46.6562 1.16829 46.3346 1.07991 46.0077 1.00487C44.9359 0.75572 43.8642 0.565446 42.7681 0.410024C42.4359 0.361827 42.109 0.29746 41.774 0.257271C38.9512 -0.0857568 36.0973 -0.0857568 33.2744 0.257271C32.9395 0.29746 32.6126 0.361827 32.2802 0.410024C31.1844 0.565446 30.1018 0.75572 29.0406 1.00487C28.7137 1.07991 28.3922 1.16829 28.0707 1.25401C26.9756 1.53974 25.9038 1.87287 24.8552 2.25342C24.5872 2.34448 24.3434 2.43569 24.0889 2.52141C22.9021 2.97873 21.7393 3.49649 20.6054 4.0728C20.5009 4.12634 20.3938 4.17186 20.2919 4.22556C17.7373 5.54759 15.3431 7.15848 13.1562 9.02684C12.9928 9.16876 12.84 9.31885 12.6766 9.46359C11.7834 10.2495 10.9384 11.0721 10.1417 11.9312C9.9221 12.167 9.70763 12.4055 9.49332 12.6466C8.70909 13.5272 7.96771 14.4453 7.26936 15.4009C7.17296 15.5321 7.05772 15.6473 6.96383 15.7813C6.95158 15.8047 6.94075 15.8288 6.93165 15.8536C-2.31055 28.805 -2.31055 46.195 6.93165 59.1462C6.94075 59.171 6.95143 59.1952 6.96383 59.2186C7.05756 59.3525 7.1728 59.4677 7.26936 59.599C7.96787 60.5528 8.70909 61.4709 9.49332 62.3534C9.70763 62.5945 9.9221 62.833 10.1417 63.0688C10.9492 63.9315 11.7941 64.7541 12.6766 65.5364C12.84 65.6812 12.9928 65.8311 13.1562 65.9732C15.3354 67.8399 17.7216 69.451 20.2677 70.7744C20.3696 70.828 20.4767 70.8735 20.5813 70.9272C21.7151 71.5033 22.8778 72.0213 24.0647 72.4786C24.3327 72.575 24.5765 72.6662 24.831 72.7466C25.8867 73.127 26.9586 73.4601 28.0465 73.746C28.368 73.8317 28.6896 73.9201 29.0164 73.9951C30.0883 74.2443 31.16 74.4345 32.2561 74.59C32.5883 74.6382 32.9152 74.7025 33.2502 74.7427C36.073 75.0858 38.9268 75.0858 41.7498 74.7427C42.0847 74.7025 42.4116 74.6382 42.7439 74.59C43.8398 74.4345 44.9224 74.2443 45.9836 73.9951C46.3104 73.9201 46.632 73.8317 46.9535 73.746C48.0503 73.4603 49.1222 73.1271 50.169 72.7466C50.437 72.6555 50.6808 72.5643 50.9353 72.4786C52.1221 72.0213 53.2849 71.5035 54.4187 70.9272C54.5233 70.8737 54.6304 70.8281 54.7323 70.7744C57.2784 69.4508 59.6646 67.8399 61.8438 65.9732C62.0072 65.8311 62.16 65.6812 62.3234 65.5364C63.2166 64.7522 64.0616 63.9297 64.8582 63.0688C65.0779 62.833 65.2924 62.5945 65.5067 62.3534C66.2909 61.4709 67.0323 60.5528 67.7306 59.599C67.827 59.4677 67.9423 59.3525 68.0362 59.2186C68.0484 59.1952 68.0592 59.171 68.0684 59.1462C77.3105 46.1952 77.3105 28.8052 68.0684 15.8538ZM65.011 20.9232C67.5736 25.1433 69.1211 29.9008 69.5313 34.8209H53.481C53.2844 31.6283 52.782 28.4621 51.9805 25.3656C56.5143 24.5166 60.9027 23.0205 65.011 20.9232ZM44.3303 6.08764C44.4804 6.12249 44.625 6.17069 44.7751 6.20554C45.7344 6.43067 46.6857 6.68782 47.6154 7.00934C47.7575 7.05753 47.8968 7.11389 48.0362 7.16476C48.958 7.48628 49.8663 7.84265 50.756 8.23654C50.9114 8.30892 51.0642 8.3893 51.2196 8.46167C52.0717 8.86718 52.9041 9.30566 53.7169 9.77726L54.2528 10.1014C55.0245 10.5731 55.7748 11.0776 56.5036 11.6153C56.6912 11.7519 56.8787 11.8833 57.0636 12.0332C57.7782 12.569 58.4624 13.1433 59.1161 13.7561C59.2876 13.9115 59.4645 14.0642 59.6333 14.225C60.3193 14.876 60.973 15.5646 61.6054 16.2774C61.6858 16.3711 61.7715 16.4568 61.8519 16.5453C58.2237 18.2743 54.3801 19.5089 50.4238 20.216C48.5909 15.1778 46.1698 10.3735 43.2105 5.90301C43.5826 5.96989 43.9632 6.00741 44.3303 6.08764ZM26.8919 34.8208C27.1032 31.9218 27.5968 29.0502 28.3657 26.247C31.4017 26.6076 34.4563 26.7864 37.5137 26.7828C40.5738 26.7818 43.6313 26.5985 46.6697 26.2335C47.4371 29.0413 47.928 31.9174 48.1353 34.8208H26.8919ZM48.1353 40.1795C47.924 43.0786 47.4303 45.9501 46.6615 48.7533C43.6255 48.3927 40.5708 48.2139 37.5135 48.2175C34.4535 48.2141 31.3962 48.3929 28.3575 48.7533C27.5909 45.9499 27.1001 43.0784 26.8917 40.1795H48.1353ZM37.5135 7.09521C40.5628 11.4167 43.0708 16.0959 44.9814 21.0278C42.5009 21.2912 40.0081 21.4236 37.5135 21.4243C35.0217 21.4214 32.5316 21.2882 30.0536 21.0251C31.9666 16.0965 34.4715 11.4189 37.5135 7.09521ZM13.4245 16.2745C14.0543 15.5618 14.7107 14.8732 15.3967 14.2222C15.5654 14.0614 15.7424 13.9087 15.9138 13.7532C16.5748 13.1513 17.2591 12.5771 17.9664 12.0304C18.1513 11.8883 18.3388 11.7624 18.5264 11.6125C19.2552 11.0767 20.0055 10.572 20.7772 10.0986L21.313 9.77444C22.1259 9.29938 22.9583 8.86074 23.8104 8.45884C23.9658 8.38647 24.1186 8.30609 24.274 8.23372C25.1636 7.83182 26.072 7.47545 26.9938 7.16193C27.133 7.11107 27.2618 7.05471 27.4144 7.00651C28.3442 6.69567 29.2901 6.43851 30.2547 6.20271C30.4048 6.16786 30.5494 6.11966 30.7022 6.08748C31.0693 6.0071 31.4499 5.96958 31.8223 5.90254C28.8618 10.3738 26.4399 15.179 24.6062 20.2182C20.6499 19.5111 16.8061 18.2765 13.178 16.5475C13.2584 16.454 13.3442 16.3683 13.4245 16.2745ZM10.0161 20.9232C14.1235 23.0203 18.511 24.5165 23.044 25.3656C22.2435 28.4623 21.7418 31.6285 21.5462 34.8209H5.49584C5.90625 29.9008 7.45368 25.1433 10.0161 20.9232ZM10.0161 54.0772C7.45353 49.8571 5.9061 45.0997 5.49584 40.1795H21.5462C21.7428 43.3721 22.2452 46.5383 23.0467 49.6348C18.5129 50.4837 14.1245 51.9798 10.0161 54.0772ZM30.6969 68.9127C30.5468 68.8778 30.4022 68.8296 30.2521 68.7948C29.2928 68.5696 28.3415 68.3125 27.4117 67.991C27.2696 67.9428 27.1304 67.8864 26.9909 67.8355C26.0692 67.514 25.1609 67.1577 24.2712 66.7638C24.1157 66.6914 23.963 66.611 23.8075 66.5386C22.9555 66.1331 22.123 65.6946 21.3102 65.223L20.7744 64.8989C20.0027 64.4273 19.2524 63.9227 18.5236 63.385C18.3359 63.2484 18.1485 63.117 17.9635 62.9671C17.249 62.4313 16.5648 61.857 15.911 61.2442C15.7396 61.0888 15.5626 60.9361 15.3938 60.7753C14.7079 60.1243 14.0541 59.4357 13.4217 58.723C13.3413 58.6292 13.2556 58.5435 13.1752 58.455C16.8034 56.726 20.647 55.4914 24.6034 54.7843C26.4362 59.8225 28.8574 64.6268 31.8166 69.0973C31.4444 69.0306 31.0639 68.993 30.6969 68.9127ZM37.5135 67.9053C34.4642 63.5837 31.9562 58.9046 30.0456 53.9727C35.008 53.4386 40.0135 53.4386 44.9759 53.9727L44.9732 53.9754C43.0606 58.9038 40.5556 63.5814 37.5135 67.9053ZM61.6026 58.7258C60.9729 59.4385 60.3164 60.1271 59.6305 60.7781C59.4617 60.9389 59.2848 61.0916 59.1133 61.2471C58.4523 61.8509 57.7681 62.4251 57.0608 62.9699C56.8759 63.1118 56.6884 63.2512 56.5008 63.3878C55.772 63.9236 55.0216 64.4284 54.25 64.9017L53.7141 65.2259C52.903 65.6992 52.0706 66.1377 51.2168 66.5415C51.0614 66.6138 50.9086 66.6942 50.7532 66.7666C49.8636 67.1685 48.9552 67.5249 48.0334 67.8384C47.8941 67.8892 47.7654 67.9456 47.6128 67.9938C46.683 68.3046 45.737 68.5618 44.7724 68.7976C44.6223 68.8324 44.4777 68.8806 44.325 68.9128C43.9579 68.9932 43.5773 69.0307 43.2049 69.0978C46.1641 64.6273 48.5854 59.823 50.4181 54.7848C54.3745 55.4919 58.2182 56.7265 61.8463 58.4554C61.7687 58.5463 61.683 58.6321 61.6026 58.7258ZM65.011 54.0772C60.9036 51.9801 56.5162 50.484 51.9831 49.6348C52.7837 46.5382 53.2853 43.372 53.481 40.1795H69.5313C69.1209 45.0995 67.5735 49.857 65.011 54.0772Z" fill="black"/>
</svg>
