<svg width="49" height="48" viewBox="0 0 49 48" fill="none" xmlns="http://www.w3.org/2000/svg">
<path fill-rule="evenodd" clip-rule="evenodd" d="M34.8204 0C42.9607 0 48.4316 5.70465 48.4316 14.1931V33.8069C48.4316 42.2953 42.9607 48 34.8204 48H14.0188C5.89056 48 0.431641 42.2953 0.431641 33.8069V14.1931C0.431641 5.70465 5.89056 0 14.0188 0H34.8204ZM34.8204 3.60902H14.0188C7.95629 3.60902 4.03886 7.7642 4.03886 14.1931V33.8069C4.03886 40.2382 7.95629 44.391 14.0188 44.391H34.8204C40.8974 44.391 44.8244 40.2382 44.8244 33.8069V14.1931C44.8244 7.7642 40.8974 3.60902 34.8204 3.60902Z" fill="black"/>
<path d="M39.2357 22.6958C38.7956 20.6657 37.6817 19.1117 35.6696 18.3482C34.3492 17.8452 32.9569 17.7104 31.5646 17.8182C29.3998 17.9889 27.5763 18.8243 26.3367 20.6926C26.3277 20.7106 26.2828 20.7106 26.2199 20.7286C26.2199 19.8752 26.2199 19.0309 26.2199 18.1865C24.1629 18.1865 22.1508 18.1865 20.1477 18.1865C20.1477 24.9594 20.1477 31.7053 20.1477 38.4423C22.1957 38.4423 24.1988 38.4423 26.2469 38.4423C26.2469 38.2357 26.2469 38.0561 26.2469 37.8764C26.2469 34.7505 26.2379 31.6155 26.2559 28.4896C26.2559 27.771 26.3187 27.0523 26.4445 26.3517C26.7768 24.4833 27.7829 23.5042 29.5435 23.2347C31.5736 22.9293 32.9838 23.9174 33.3072 25.9475C33.4509 26.8278 33.4869 27.735 33.4958 28.6243C33.5138 31.7233 33.5048 34.8223 33.5048 37.9213C33.5048 38.092 33.5048 38.2716 33.5048 38.4603C35.5978 38.4603 37.6278 38.4603 39.7028 38.4603C39.7118 38.3255 39.7208 38.2357 39.7208 38.1549C39.7208 34.2205 39.7477 30.2771 39.6939 26.3427C39.6669 25.1211 39.4962 23.8815 39.2357 22.6958Z" fill="black"/>
<path d="M9.89864 38.4423C12.0006 38.4423 14.0756 38.4423 16.1416 38.4423C16.1416 31.6694 16.1416 24.9235 16.1416 18.1686C14.0486 18.1686 11.9916 18.1686 9.89864 18.1686C9.89864 24.9504 9.89864 31.6964 9.89864 38.4423Z" fill="black"/>
<path d="M13.1684 8.00025C11.1114 7.98228 9.44062 9.61712 9.43164 11.6652C9.42266 13.7042 11.0575 15.366 13.0696 15.384C15.1266 15.4019 16.7974 13.7581 16.8154 11.7191C16.8154 9.68 15.1805 8.01821 13.1684 8.00025Z" fill="black"/>
</svg>
