<svg width="45" height="45" viewBox="0 0 45 45" fill="none" xmlns="http://www.w3.org/2000/svg">
<path fill-rule="evenodd" clip-rule="evenodd" d="M22.5829 0.883179C34.6053 0.883179 44.3866 10.6644 44.3866 22.6868C44.3866 34.7092 34.6053 44.4905 22.5829 44.4905C10.5605 44.4905 0.779297 34.7092 0.779297 22.6868C0.779297 10.6644 10.5605 0.883179 22.5829 0.883179ZM22.5829 4.03977C12.3009 4.03977 3.93589 12.4068 3.93589 22.6868C3.93589 32.9689 12.3009 41.3339 22.5829 41.3339C32.865 41.3339 41.23 32.9689 41.23 22.6868C41.23 12.4068 32.865 4.03977 22.5829 4.03977ZM30.7303 14.5405C31.1449 14.9572 31.2964 15.5695 31.1196 16.1272L27.7694 26.8365C27.6158 27.331 27.2265 27.7182 26.7341 27.8718L16.0248 31.2241C15.8691 31.2725 15.7091 31.2957 15.5534 31.2957C15.141 31.2957 14.7369 31.1336 14.436 30.8348C14.0214 30.4182 13.8699 29.8058 14.0467 29.2481L17.399 18.5388C17.5526 18.0422 17.9398 17.6571 18.4322 17.5035L29.1415 14.1512C29.7034 13.9723 30.3136 14.1259 30.7303 14.5405ZM27.2076 18.0633L20.1641 20.2687L17.9608 27.3121L25.0021 25.1067L27.2076 18.0633Z" fill="black"/>
</svg>
