<svg width="65" height="69" viewBox="0 0 65 69" fill="none" xmlns="http://www.w3.org/2000/svg">
<path fill-rule="evenodd" clip-rule="evenodd" d="M37.0696 45.6436C40.8538 45.6436 43.9339 48.7017 43.9339 52.4608V62.1286C43.9339 62.9364 44.5814 63.5838 45.4111 63.6027H51.4017C56.1225 63.6027 59.9601 59.8122 59.9601 55.1543V27.7348C59.9381 26.1319 59.1743 24.6232 57.8637 23.6206L37.1419 7.09475C34.3604 4.89151 30.4693 4.89151 27.6784 7.10104L7.09804 23.6143C5.73712 24.6484 4.97337 26.157 4.95766 27.7882V55.1543C4.95766 59.8122 8.79525 63.6027 13.516 63.6027H19.5632C20.4149 63.6027 21.1064 62.9269 21.1064 62.0972C21.1064 61.9149 21.1284 61.7326 21.1661 61.5597V52.4608C21.1661 48.7237 24.2274 45.6687 27.9832 45.6436H37.0696ZM51.4017 68.3172H45.3546C41.891 68.2354 39.2194 65.5168 39.2194 62.1286V52.4608C39.2194 51.301 38.2545 50.3581 37.0696 50.3581H27.999C26.8392 50.3644 25.8806 51.3104 25.8806 52.4608V62.0972C25.8806 62.3329 25.8491 62.5592 25.7831 62.7729C25.4437 65.8845 22.7847 68.3172 19.5632 68.3172H13.516C6.19599 68.3172 0.243164 62.4115 0.243164 55.1543V27.7662C0.274594 24.6421 1.71409 21.782 4.20019 19.8993L24.7397 3.4143C29.2624 -0.16871 35.5641 -0.16871 40.0775 3.40802L60.7647 19.9087C63.1942 21.76 64.6337 24.6138 64.6746 27.7002V55.1543C64.6746 62.4115 58.7217 68.3172 51.4017 68.3172Z" fill="black"/>
</svg>
