<svg width="60" height="70" viewBox="0 0 60 70" fill="none" xmlns="http://www.w3.org/2000/svg">
<path fill-rule="evenodd" clip-rule="evenodd" d="M29.794 0.163361C45.9641 0.163361 59.1199 13.4187 59.1199 29.7132C59.1199 49.7437 36.1711 69.4792 29.794 69.4792C23.4169 69.4792 0.468079 49.7437 0.468079 29.7132C0.468079 13.4187 13.6239 0.163361 29.794 0.163361ZM29.794 5.49535C16.5636 5.49535 5.80007 16.3619 5.80007 29.7132C5.80007 46.7009 25.7915 63.2514 29.794 64.133C33.7965 63.2479 53.7879 46.6974 53.7879 29.7132C53.7879 16.3619 43.0244 5.49535 29.794 5.49535ZM29.7976 17.9366C36.1675 17.9366 41.3502 23.1193 41.3502 29.4928C41.3502 35.8628 36.1675 41.0419 29.7976 41.0419C23.4276 41.0419 18.2449 35.8628 18.2449 29.4928C18.2449 23.1193 23.4276 17.9366 29.7976 17.9366ZM29.7976 23.2686C26.3673 23.2686 23.5769 26.059 23.5769 29.4928C23.5769 32.9231 26.3673 35.7099 29.7976 35.7099C33.2278 35.7099 36.0182 32.9231 36.0182 29.4928C36.0182 26.059 33.2278 23.2686 29.7976 23.2686Z" fill="black"/>
</svg>
