<svg width="58" height="59" viewBox="0 0 58 59" fill="none" xmlns="http://www.w3.org/2000/svg">
<path d="M54.9138 16.8653C54.7402 16.6836 54.4996 16.5802 54.2477 16.5802H27.5354C27.2835 16.5802 27.0427 16.6836 26.8692 16.8653C26.6952 17.0471 26.6033 17.2925 26.615 17.5444L27.2803 31.8505C27.3038 32.358 27.7418 32.7583 28.2433 32.7277C28.7516 32.7042 29.1444 32.2724 29.1209 31.7642L28.5004 18.4225H53.2835L51.5267 56.1882H30.84C30.3314 56.1882 29.9189 56.6002 29.9189 57.1094C29.9189 57.6186 30.3314 58.0305 30.84 58.0305H52.4056C52.8977 58.0305 53.3028 57.6437 53.3258 57.1524L55.168 17.5444C55.1796 17.2925 55.088 17.0471 54.9138 16.8653Z" fill="black"/>
<path fill-rule="evenodd" clip-rule="evenodd" d="M29.1211 31.7643C29.1445 32.2726 28.7518 32.7044 28.2435 32.7278C27.742 32.7585 27.304 32.3581 27.2805 31.8507L26.6152 17.5446C26.6034 17.2926 26.6953 17.0472 26.8694 16.8655C27.0429 16.6837 27.2836 16.5804 27.5355 16.5804H54.2478C54.4997 16.5804 54.7403 16.6837 54.914 16.8655C55.0882 17.0472 55.1798 17.2926 55.1682 17.5446L53.326 57.1526C53.3029 57.6438 52.8979 58.0307 52.4058 58.0307H30.8402C30.3315 58.0307 29.919 57.6187 29.919 57.1095C29.919 56.6003 30.3315 56.1884 30.8402 56.1884H51.5268L53.2836 18.4227H28.5005L29.1211 31.7643ZM28.8575 18.7634L29.4614 31.7485C29.4935 32.4434 28.9572 33.0346 28.2618 33.0681C27.5667 33.1092 26.9722 32.5582 26.9401 31.8665M26.9401 31.8665L26.2748 17.5604C26.2748 17.5604 26.2748 17.5604 26.2748 17.5604C26.2587 17.2155 26.3846 16.8791 26.6233 16.6298C26.861 16.3809 27.1903 16.2396 27.5355 16.2396H54.2478C54.593 16.2396 54.9223 16.3811 55.16 16.6297C55.3991 16.8792 55.5244 17.2157 55.5085 17.5602L53.6663 57.1684C53.6347 57.8413 53.0799 58.3714 52.4058 58.3714H30.8402C30.1435 58.3714 29.5783 57.8071 29.5783 57.1095C29.5783 56.412 30.1435 55.8476 30.8402 55.8476H51.2016L52.9267 18.7634H28.8575" fill="black"/>
<path d="M37.6682 50.6615H4.50807C3.99939 50.6615 3.58691 51.0734 3.58691 51.5827C3.58691 55.1376 6.47939 58.0305 10.0348 58.0305H32.1415C35.6968 58.0305 38.5894 55.1375 38.5894 51.5827C38.5892 51.0734 38.1769 50.6615 37.6682 50.6615ZM32.1415 56.1882H10.0348C7.81046 56.1882 5.94939 54.6032 5.5218 52.5037H36.6545C36.2266 54.6032 34.3656 56.1882 32.1415 56.1882Z" fill="black"/>
<path fill-rule="evenodd" clip-rule="evenodd" d="M38.9295 51.5828C38.9295 55.3258 35.8844 58.3714 32.141 58.3714H10.0342C6.29062 58.3714 3.24561 55.3259 3.24561 51.5828C3.24561 50.8853 3.81076 50.3209 4.5075 50.3209H37.6677C38.3645 50.3209 38.9294 50.8854 38.9295 51.5828ZM38.5888 51.5828C38.5888 55.1376 35.6962 58.0306 32.141 58.0306H10.0342C6.47881 58.0306 3.58634 55.1378 3.58634 51.5828C3.58634 51.0736 3.99881 50.6617 4.5075 50.6617H37.6677C38.1763 50.6617 38.5887 51.0736 38.5888 51.5828ZM10.0342 55.8476H32.141C34.0526 55.8476 35.6759 54.5821 36.2153 52.8446H5.95984C6.49894 54.5821 8.12227 55.8476 10.0342 55.8476ZM5.60436 52.8446C5.57245 52.7327 5.54468 52.619 5.52122 52.5038H36.6539C36.6305 52.619 36.6027 52.7327 36.5707 52.8446C36.0208 54.7725 34.243 56.1883 32.141 56.1883H10.0342C7.93192 56.1883 6.15411 54.7725 5.60436 52.8446Z" fill="black"/>
<path d="M37.6679 45.1349H4.50775C2.47626 45.1349 0.823242 46.7874 0.823242 48.8194C0.823242 50.8514 2.47612 52.5039 4.50775 52.5039H37.6679C39.6994 52.5039 41.3524 50.8514 41.3524 48.8194C41.3524 46.7874 39.6994 45.1349 37.6679 45.1349ZM37.6679 50.6616H4.50775C3.49173 50.6616 2.66556 49.8349 2.66556 48.8194C2.66556 47.8039 3.49187 46.9772 4.50775 46.9772H37.6679C38.6839 46.9772 39.5101 47.8039 39.5101 48.8194C39.5101 49.8349 38.6838 50.6616 37.6679 50.6616Z" fill="black"/>
<path fill-rule="evenodd" clip-rule="evenodd" d="M4.50766 44.7942H37.6678C39.8874 44.7942 41.6931 46.5992 41.6931 48.8194C41.6931 51.0397 39.8874 52.8447 37.6678 52.8447H4.50766C2.28788 52.8447 0.482422 51.0397 0.482422 48.8194C0.482422 46.5992 2.28802 44.7942 4.50766 44.7942ZM4.50766 50.3209H37.6678C38.4955 50.3209 39.1693 49.6468 39.1693 48.8194C39.1693 47.9921 38.4956 47.318 37.6678 47.318H4.50766C3.68001 47.318 3.0062 47.9921 3.0062 48.8194C3.0062 49.6468 3.67989 50.3209 4.50766 50.3209ZM4.50766 45.1349H37.6678C39.6993 45.1349 41.3523 46.7874 41.3523 48.8194C41.3523 50.8515 39.6993 52.5039 37.6678 52.5039H4.50766C2.47603 52.5039 0.823152 50.8515 0.823152 48.8194C0.823152 46.7874 2.47617 45.1349 4.50766 45.1349ZM4.50766 50.6616H37.6678C38.6837 50.6616 39.51 49.8349 39.51 48.8194C39.51 47.804 38.6838 46.9772 37.6678 46.9772H4.50766C3.49178 46.9772 2.66547 47.804 2.66547 48.8194C2.66547 49.8349 3.49164 50.6616 4.50766 50.6616Z" fill="black"/>
<path d="M40.4307 27.6335C36.228 27.6335 32.5604 30.4727 31.5115 34.5366C31.3841 35.0297 31.6805 35.5315 32.173 35.6593C32.6667 35.7853 33.1679 35.4902 33.2952 34.9972C34.1339 31.746 37.0681 29.4757 40.4307 29.4757C44.4939 29.4757 47.7996 32.7814 47.7996 36.8446C47.7996 40.9079 44.4939 44.2135 40.4307 44.2135C39.5856 44.2135 38.758 44.0724 37.9713 43.7935C37.4923 43.6253 36.9653 43.8745 36.7957 44.3539C36.6257 44.8334 36.8768 45.3596 37.3562 45.5296C38.3409 45.8785 39.3753 46.0558 40.4308 46.0558C45.5101 46.0558 49.6417 41.9235 49.6417 36.8446C49.6417 31.7657 45.5099 27.6335 40.4307 27.6335Z" fill="black"/>
<path fill-rule="evenodd" clip-rule="evenodd" d="M32.1733 35.6593C31.6808 35.5315 31.3843 35.0297 31.5117 34.5367C32.5607 30.4728 36.2283 27.6336 40.4309 27.6336C45.5102 27.6336 49.642 31.7658 49.642 36.8446C49.642 41.9235 45.5103 46.0558 40.4311 46.0558C39.3755 46.0558 38.3411 45.8785 37.3564 45.5296C36.877 45.3596 36.6259 44.8334 36.7959 44.354C36.9655 43.8746 37.4926 43.6254 37.9716 43.7935C38.7582 44.0724 39.5859 44.2135 40.4309 44.2135C44.4942 44.2135 47.7998 40.9079 47.7998 36.8446C47.7998 32.7814 44.4942 29.4758 40.4309 29.4758C37.0684 29.4758 34.1342 31.7461 33.2955 34.9972C33.1681 35.4902 32.667 35.7853 32.1733 35.6593ZM36.4747 44.2403C36.7076 43.5822 37.4298 43.2422 38.0844 43.472L38.0854 43.4723C38.835 43.7381 39.6241 43.8728 40.4309 43.8728C44.306 43.8728 47.4591 40.7197 47.4591 36.8446C47.4591 32.9696 44.306 29.8165 40.4309 29.8165C37.2234 29.8165 34.4252 31.982 33.6254 35.0823L33.6254 35.0824C33.4508 35.7581 32.7639 36.1617 32.089 35.9894L32.0877 35.9891C31.4137 35.8142 31.0073 35.1271 31.1818 34.4515C32.2696 30.2369 36.0731 27.2928 40.4309 27.2928C45.6984 27.2928 49.9827 31.5776 49.9827 36.8446C49.9827 42.1117 45.6985 46.3966 40.4311 46.3966C39.3371 46.3966 38.2642 46.2128 37.2426 45.8508L37.2426 45.8508C36.5861 45.618 36.2419 44.8973 36.4747 44.2403Z" fill="black"/>
<path d="M22.9303 30.3971H19.2458C10.6113 30.3971 3.58691 37.4215 3.58691 46.056C3.58691 46.5651 3.99939 46.9772 4.50807 46.9772H37.6682C38.1769 46.9772 38.5894 46.5652 38.5894 46.056C38.5892 37.4216 31.5648 30.3971 22.9303 30.3971ZM5.45973 45.135C5.93549 37.9441 11.9367 32.2394 19.2458 32.2394H22.9303C30.2394 32.2394 36.2407 37.9441 36.7164 45.135H5.45973Z" fill="black"/>
<path fill-rule="evenodd" clip-rule="evenodd" d="M19.2453 30.0562H22.9298C31.7525 30.0562 38.9294 37.2332 38.9295 46.0558C38.9295 46.7533 38.3644 47.3177 37.6677 47.3177H4.5075C3.81073 47.3177 3.24561 46.7532 3.24561 46.0558C3.24561 37.2331 10.4226 30.0562 19.2453 30.0562ZM5.45915 45.1348H36.7159C36.7083 45.0208 36.6994 44.9072 36.6891 44.794C36.0496 37.7645 30.123 32.2392 22.9298 32.2392H19.2453C12.052 32.2392 6.12544 37.7645 5.48591 44.794C5.47562 44.9072 5.46669 45.0208 5.45915 45.1348ZM5.82809 44.794H36.3469C35.7086 37.953 29.9346 32.5799 22.9298 32.5799H19.2453C12.2404 32.5799 6.46638 37.953 5.82809 44.794ZM19.2453 30.3969H22.9298C31.5643 30.3969 38.5887 37.4214 38.5888 46.0558C38.5888 46.565 38.1763 46.977 37.6677 46.977H4.5075C3.99881 46.977 3.58634 46.5649 3.58634 46.0558C3.58634 37.4213 10.6107 30.3969 19.2453 30.3969Z" fill="black"/>
<path d="M23.8515 35.0023H22.0093V36.8445H23.8515V35.0023Z" fill="black"/>
<path fill-rule="evenodd" clip-rule="evenodd" d="M21.6682 34.6617H24.1919V37.1854H21.6682V34.6617ZM23.8511 35.0025V36.8447H22.0089V35.0025H23.8511Z" fill="black"/>
<path d="M29.3776 39.608H27.5354V41.4502H29.3776V39.608Z" fill="black"/>
<path fill-rule="evenodd" clip-rule="evenodd" d="M27.1951 39.2671H29.7187V41.7907H27.1951V39.2671ZM29.378 39.6078V41.45H27.5358V39.6078H29.378Z" fill="black"/>
<path d="M21.0878 40.5292H19.2456V42.3714H21.0878V40.5292Z" fill="black"/>
<path fill-rule="evenodd" clip-rule="evenodd" d="M18.9048 40.1884H21.4284V42.712H18.9048V40.1884ZM21.0877 40.5291V42.3713H19.2455V40.5291H21.0877Z" fill="black"/>
<path d="M56.0904 12.8959H24.7725C24.2638 12.8959 23.8513 13.3078 23.8513 13.817V17.5015C23.8513 18.0106 24.2638 18.4227 24.7725 18.4227H56.0904C56.5991 18.4227 57.0116 18.0108 57.0116 17.5015V13.817C57.0116 13.3078 56.5991 12.8959 56.0904 12.8959ZM55.1693 16.5802H25.6936V14.7381H55.1693V16.5802Z" fill="black"/>
<path fill-rule="evenodd" clip-rule="evenodd" d="M24.7719 12.5551H56.0899C56.7866 12.5551 57.3518 13.1194 57.3518 13.8169V17.5014C57.3518 18.199 56.7866 18.7633 56.0899 18.7633H24.7719C24.0751 18.7633 23.51 18.1988 23.51 17.5014V13.8169C23.51 13.1194 24.0752 12.5551 24.7719 12.5551ZM26.0338 16.2394H54.828V15.0787H26.0338V16.2394ZM24.7719 12.8958H56.0899C56.5985 12.8958 57.011 13.3077 57.011 13.8169V17.5014C57.011 18.0107 56.5985 18.4226 56.0899 18.4226H24.7719C24.2632 18.4226 23.8507 18.0105 23.8507 17.5014V13.8169C23.8507 13.3077 24.2632 12.8958 24.7719 12.8958ZM55.1687 16.5802V14.738H25.6931V16.5802H55.1687Z" fill="black"/>
<path d="M32.1211 13.6235L29.3577 0.727969C29.2511 0.23143 28.7623 -0.0870023 28.2639 0.0210758C27.7665 0.127265 27.4494 0.617462 27.556 1.11495L30.3194 14.0105C30.4119 14.4423 30.7942 14.7382 31.2194 14.7382C31.2832 14.7382 31.3485 14.7317 31.4132 14.7174C31.9107 14.6112 32.2278 14.1209 32.1211 13.6235Z" fill="black"/>
<path fill-rule="evenodd" clip-rule="evenodd" d="M27.556 1.11494C27.4494 0.617462 27.7665 0.127265 28.2639 0.0210758C28.7623 -0.0870023 29.2511 0.23143 29.3577 0.727969L32.1211 13.6235C32.2278 14.1209 31.9107 14.6112 31.4132 14.7174C31.3485 14.7317 31.2832 14.7382 31.2194 14.7382C30.7942 14.7382 30.4119 14.4423 30.3194 14.0105L27.556 1.11494ZM32.4542 13.552C32.4542 13.5521 32.4542 13.5521 32.4543 13.5521C32.6003 14.233 32.1667 14.9043 31.4855 15.0504" fill="black"/>
<path d="M54.9138 16.8653C54.7402 16.6836 54.4996 16.5802 54.2477 16.5802H27.5354C27.2835 16.5802 27.0427 16.6836 26.8692 16.8653C26.6952 17.0471 26.6033 17.2925 26.615 17.5444L27.2803 31.8505C27.3038 32.358 27.7418 32.7583 28.2433 32.7277C28.7516 32.7042 29.1444 32.2724 29.1209 31.7642L28.5004 18.4225H53.2835L51.5267 56.1882H30.84C30.3314 56.1882 29.9189 56.6002 29.9189 57.1094C29.9189 57.6186 30.3314 58.0305 30.84 58.0305H52.4056C52.8977 58.0305 53.3028 57.6437 53.3258 57.1524L55.168 17.5444C55.1796 17.2925 55.088 17.0471 54.9138 16.8653Z" fill="black"/>
<path fill-rule="evenodd" clip-rule="evenodd" d="M29.1211 31.7643C29.1445 32.2726 28.7518 32.7044 28.2435 32.7278C27.742 32.7585 27.304 32.3581 27.2805 31.8507L26.6152 17.5446C26.6034 17.2926 26.6953 17.0472 26.8694 16.8655C27.0429 16.6837 27.2836 16.5804 27.5355 16.5804H54.2478C54.4997 16.5804 54.7403 16.6837 54.914 16.8655C55.0882 17.0472 55.1798 17.2926 55.1682 17.5446L53.326 57.1526C53.3029 57.6438 52.8979 58.0307 52.4058 58.0307H30.8402C30.3315 58.0307 29.919 57.6187 29.919 57.1095C29.919 56.6003 30.3315 56.1884 30.8402 56.1884H51.5268L53.2836 18.4227H28.5005L29.1211 31.7643ZM28.8575 18.7634L29.4614 31.7485C29.4935 32.4434 28.9572 33.0346 28.2618 33.0681C27.5667 33.1092 26.9722 32.5582 26.9401 31.8665M26.9401 31.8665L26.2748 17.5604C26.2748 17.5604 26.2748 17.5604 26.2748 17.5604C26.2587 17.2155 26.3846 16.8791 26.6233 16.6298C26.861 16.3809 27.1903 16.2396 27.5355 16.2396H54.2478C54.593 16.2396 54.9223 16.3811 55.16 16.6297C55.3991 16.8792 55.5244 17.2157 55.5085 17.5602L53.6663 57.1684C53.6347 57.8413 53.0799 58.3714 52.4058 58.3714H30.8402C30.1435 58.3714 29.5783 57.8071 29.5783 57.1095C29.5783 56.412 30.1435 55.8476 30.8402 55.8476H51.2016L52.9267 18.7634H28.8575" fill="black"/>
<path d="M37.6682 50.6615H4.50807C3.99939 50.6615 3.58691 51.0734 3.58691 51.5827C3.58691 55.1376 6.47939 58.0305 10.0348 58.0305H32.1415C35.6968 58.0305 38.5894 55.1375 38.5894 51.5827C38.5892 51.0734 38.1769 50.6615 37.6682 50.6615ZM32.1415 56.1882H10.0348C7.81046 56.1882 5.94939 54.6032 5.5218 52.5037H36.6545C36.2266 54.6032 34.3656 56.1882 32.1415 56.1882Z" fill="black"/>
<path fill-rule="evenodd" clip-rule="evenodd" d="M38.9295 51.5828C38.9295 55.3258 35.8844 58.3714 32.141 58.3714H10.0342C6.29062 58.3714 3.24561 55.3259 3.24561 51.5828C3.24561 50.8853 3.81076 50.3209 4.5075 50.3209H37.6677C38.3645 50.3209 38.9294 50.8854 38.9295 51.5828ZM38.5888 51.5828C38.5888 55.1376 35.6962 58.0306 32.141 58.0306H10.0342C6.47881 58.0306 3.58634 55.1378 3.58634 51.5828C3.58634 51.0736 3.99881 50.6617 4.5075 50.6617H37.6677C38.1763 50.6617 38.5887 51.0736 38.5888 51.5828ZM10.0342 55.8476H32.141C34.0526 55.8476 35.6759 54.5821 36.2153 52.8446H5.95984C6.49894 54.5821 8.12227 55.8476 10.0342 55.8476ZM5.60436 52.8446C5.57245 52.7327 5.54468 52.619 5.52122 52.5038H36.6539C36.6305 52.619 36.6027 52.7327 36.5707 52.8446C36.0208 54.7725 34.243 56.1883 32.141 56.1883H10.0342C7.93192 56.1883 6.15411 54.7725 5.60436 52.8446Z" fill="black"/>
<path d="M37.6679 45.1349H4.50775C2.47626 45.1349 0.823242 46.7874 0.823242 48.8194C0.823242 50.8514 2.47612 52.5039 4.50775 52.5039H37.6679C39.6994 52.5039 41.3524 50.8514 41.3524 48.8194C41.3524 46.7874 39.6994 45.1349 37.6679 45.1349ZM37.6679 50.6616H4.50775C3.49173 50.6616 2.66556 49.8349 2.66556 48.8194C2.66556 47.8039 3.49187 46.9772 4.50775 46.9772H37.6679C38.6839 46.9772 39.5101 47.8039 39.5101 48.8194C39.5101 49.8349 38.6838 50.6616 37.6679 50.6616Z" fill="black"/>
<path fill-rule="evenodd" clip-rule="evenodd" d="M4.50766 44.7942H37.6678C39.8874 44.7942 41.6931 46.5992 41.6931 48.8194C41.6931 51.0397 39.8874 52.8447 37.6678 52.8447H4.50766C2.28788 52.8447 0.482422 51.0397 0.482422 48.8194C0.482422 46.5992 2.28802 44.7942 4.50766 44.7942ZM4.50766 50.3209H37.6678C38.4955 50.3209 39.1693 49.6468 39.1693 48.8194C39.1693 47.9921 38.4956 47.318 37.6678 47.318H4.50766C3.68001 47.318 3.0062 47.9921 3.0062 48.8194C3.0062 49.6468 3.67989 50.3209 4.50766 50.3209ZM4.50766 45.1349H37.6678C39.6993 45.1349 41.3523 46.7874 41.3523 48.8194C41.3523 50.8515 39.6993 52.5039 37.6678 52.5039H4.50766C2.47603 52.5039 0.823152 50.8515 0.823152 48.8194C0.823152 46.7874 2.47617 45.1349 4.50766 45.1349ZM4.50766 50.6616H37.6678C38.6837 50.6616 39.51 49.8349 39.51 48.8194C39.51 47.804 38.6838 46.9772 37.6678 46.9772H4.50766C3.49178 46.9772 2.66547 47.804 2.66547 48.8194C2.66547 49.8349 3.49164 50.6616 4.50766 50.6616Z" fill="black"/>
<path d="M40.4307 27.6335C36.228 27.6335 32.5604 30.4727 31.5115 34.5366C31.3841 35.0297 31.6805 35.5315 32.173 35.6593C32.6667 35.7853 33.1679 35.4902 33.2952 34.9972C34.1339 31.746 37.0681 29.4757 40.4307 29.4757C44.4939 29.4757 47.7996 32.7814 47.7996 36.8446C47.7996 40.9079 44.4939 44.2135 40.4307 44.2135C39.5856 44.2135 38.758 44.0724 37.9713 43.7935C37.4923 43.6253 36.9653 43.8745 36.7957 44.3539C36.6257 44.8334 36.8768 45.3596 37.3562 45.5296C38.3409 45.8785 39.3753 46.0558 40.4308 46.0558C45.5101 46.0558 49.6417 41.9235 49.6417 36.8446C49.6417 31.7657 45.5099 27.6335 40.4307 27.6335Z" fill="black"/>
<path fill-rule="evenodd" clip-rule="evenodd" d="M32.1733 35.6593C31.6808 35.5315 31.3843 35.0297 31.5117 34.5367C32.5607 30.4728 36.2283 27.6336 40.4309 27.6336C45.5102 27.6336 49.642 31.7658 49.642 36.8446C49.642 41.9235 45.5103 46.0558 40.4311 46.0558C39.3755 46.0558 38.3411 45.8785 37.3564 45.5296C36.877 45.3596 36.6259 44.8334 36.7959 44.354C36.9655 43.8746 37.4926 43.6254 37.9716 43.7935C38.7582 44.0724 39.5859 44.2135 40.4309 44.2135C44.4942 44.2135 47.7998 40.9079 47.7998 36.8446C47.7998 32.7814 44.4942 29.4758 40.4309 29.4758C37.0684 29.4758 34.1342 31.7461 33.2955 34.9972C33.1681 35.4902 32.667 35.7853 32.1733 35.6593ZM36.4747 44.2403C36.7076 43.5822 37.4298 43.2422 38.0844 43.472L38.0854 43.4723C38.835 43.7381 39.6241 43.8728 40.4309 43.8728C44.306 43.8728 47.4591 40.7197 47.4591 36.8446C47.4591 32.9696 44.306 29.8165 40.4309 29.8165C37.2234 29.8165 34.4252 31.982 33.6254 35.0823L33.6254 35.0824C33.4508 35.7581 32.7639 36.1617 32.089 35.9894L32.0877 35.9891C31.4137 35.8142 31.0073 35.1271 31.1818 34.4515C32.2696 30.2369 36.0731 27.2928 40.4309 27.2928C45.6984 27.2928 49.9827 31.5776 49.9827 36.8446C49.9827 42.1117 45.6985 46.3966 40.4311 46.3966C39.3371 46.3966 38.2642 46.2128 37.2426 45.8508L37.2426 45.8508C36.5861 45.618 36.2419 44.8973 36.4747 44.2403Z" fill="black"/>
<path d="M22.9303 30.3971H19.2458C10.6113 30.3971 3.58691 37.4215 3.58691 46.056C3.58691 46.5651 3.99939 46.9772 4.50807 46.9772H37.6682C38.1769 46.9772 38.5894 46.5652 38.5894 46.056C38.5892 37.4216 31.5648 30.3971 22.9303 30.3971ZM5.45973 45.135C5.93549 37.9441 11.9367 32.2394 19.2458 32.2394H22.9303C30.2394 32.2394 36.2407 37.9441 36.7164 45.135H5.45973Z" fill="black"/>
<path fill-rule="evenodd" clip-rule="evenodd" d="M19.2453 30.0562H22.9298C31.7525 30.0562 38.9294 37.2332 38.9295 46.0558C38.9295 46.7533 38.3644 47.3177 37.6677 47.3177H4.5075C3.81073 47.3177 3.24561 46.7532 3.24561 46.0558C3.24561 37.2331 10.4226 30.0562 19.2453 30.0562ZM5.45915 45.1348H36.7159C36.7083 45.0208 36.6994 44.9072 36.6891 44.794C36.0496 37.7645 30.123 32.2392 22.9298 32.2392H19.2453C12.052 32.2392 6.12544 37.7645 5.48591 44.794C5.47562 44.9072 5.46669 45.0208 5.45915 45.1348ZM5.82809 44.794H36.3469C35.7086 37.953 29.9346 32.5799 22.9298 32.5799H19.2453C12.2404 32.5799 6.46638 37.953 5.82809 44.794ZM19.2453 30.3969H22.9298C31.5643 30.3969 38.5887 37.4214 38.5888 46.0558C38.5888 46.565 38.1763 46.977 37.6677 46.977H4.5075C3.99881 46.977 3.58634 46.5649 3.58634 46.0558C3.58634 37.4213 10.6107 30.3969 19.2453 30.3969Z" fill="black"/>
<path d="M23.8515 35.0023H22.0093V36.8445H23.8515V35.0023Z" fill="black"/>
<path fill-rule="evenodd" clip-rule="evenodd" d="M21.6682 34.6617H24.1919V37.1854H21.6682V34.6617ZM23.8511 35.0025V36.8447H22.0089V35.0025H23.8511Z" fill="black"/>
<path d="M29.3776 39.608H27.5354V41.4502H29.3776V39.608Z" fill="black"/>
<path fill-rule="evenodd" clip-rule="evenodd" d="M27.1951 39.2671H29.7187V41.7907H27.1951V39.2671ZM29.378 39.6078V41.45H27.5358V39.6078H29.378Z" fill="black"/>
<path d="M21.0878 40.5292H19.2456V42.3714H21.0878V40.5292Z" fill="black"/>
<path fill-rule="evenodd" clip-rule="evenodd" d="M18.9048 40.1884H21.4284V42.712H18.9048V40.1884ZM21.0877 40.5291V42.3713H19.2455V40.5291H21.0877Z" fill="black"/>
<path d="M56.0904 12.8959H24.7725C24.2638 12.8959 23.8513 13.3078 23.8513 13.817V17.5015C23.8513 18.0106 24.2638 18.4227 24.7725 18.4227H56.0904C56.5991 18.4227 57.0116 18.0108 57.0116 17.5015V13.817C57.0116 13.3078 56.5991 12.8959 56.0904 12.8959ZM55.1693 16.5802H25.6936V14.7381H55.1693V16.5802Z" fill="black"/>
<path fill-rule="evenodd" clip-rule="evenodd" d="M24.7719 12.5551H56.0899C56.7866 12.5551 57.3518 13.1194 57.3518 13.8169V17.5014C57.3518 18.199 56.7866 18.7633 56.0899 18.7633H24.7719C24.0751 18.7633 23.51 18.1988 23.51 17.5014V13.8169C23.51 13.1194 24.0752 12.5551 24.7719 12.5551ZM26.0338 16.2394H54.828V15.0787H26.0338V16.2394ZM24.7719 12.8958H56.0899C56.5985 12.8958 57.011 13.3077 57.011 13.8169V17.5014C57.011 18.0107 56.5985 18.4226 56.0899 18.4226H24.7719C24.2632 18.4226 23.8507 18.0105 23.8507 17.5014V13.8169C23.8507 13.3077 24.2632 12.8958 24.7719 12.8958ZM55.1687 16.5802V14.738H25.6931V16.5802H55.1687Z" fill="black"/>
<path d="M32.1211 13.6235L29.3577 0.727969C29.2511 0.23143 28.7623 -0.0870023 28.2639 0.0210758C27.7665 0.127265 27.4494 0.617462 27.556 1.11495L30.3194 14.0105C30.4119 14.4423 30.7942 14.7382 31.2194 14.7382C31.2832 14.7382 31.3485 14.7317 31.4132 14.7174C31.9107 14.6112 32.2278 14.1209 32.1211 13.6235Z" fill="black"/>
<path fill-rule="evenodd" clip-rule="evenodd" d="M27.556 1.11494C27.4494 0.617462 27.7665 0.127265 28.2639 0.0210758C28.7623 -0.0870023 29.2511 0.23143 29.3577 0.727969L32.1211 13.6235C32.2278 14.1209 31.9107 14.6112 31.4132 14.7174C31.3485 14.7317 31.2832 14.7382 31.2194 14.7382C30.7942 14.7382 30.4119 14.4423 30.3194 14.0105L27.556 1.11494ZM32.4542 13.552C32.4542 13.5521 32.4542 13.5521 32.4543 13.5521C32.6003 14.233 32.1667 14.9043 31.4855 15.0504" fill="black"/>
<path d="M54.9138 16.8653C54.7402 16.6836 54.4996 16.5802 54.2477 16.5802H27.5354C27.2835 16.5802 27.0427 16.6836 26.8692 16.8653C26.6952 17.0471 26.6033 17.2925 26.615 17.5444L27.2803 31.8505C27.3038 32.358 27.7418 32.7583 28.2433 32.7277C28.7516 32.7042 29.1444 32.2724 29.1209 31.7642L28.5004 18.4225H53.2835L51.5267 56.1882H30.84C30.3314 56.1882 29.9189 56.6002 29.9189 57.1094C29.9189 57.6186 30.3314 58.0305 30.84 58.0305H52.4056C52.8977 58.0305 53.3028 57.6437 53.3258 57.1524L55.168 17.5444C55.1796 17.2925 55.088 17.0471 54.9138 16.8653Z" fill="black"/>
<path fill-rule="evenodd" clip-rule="evenodd" d="M29.1211 31.7643C29.1445 32.2726 28.7518 32.7044 28.2435 32.7278C27.742 32.7585 27.304 32.3581 27.2805 31.8507L26.6152 17.5446C26.6034 17.2926 26.6953 17.0472 26.8694 16.8655C27.0429 16.6837 27.2836 16.5804 27.5355 16.5804H54.2478C54.4997 16.5804 54.7403 16.6837 54.914 16.8655C55.0882 17.0472 55.1798 17.2926 55.1682 17.5446L53.326 57.1526C53.3029 57.6438 52.8979 58.0307 52.4058 58.0307H30.8402C30.3315 58.0307 29.919 57.6187 29.919 57.1095C29.919 56.6003 30.3315 56.1884 30.8402 56.1884H51.5268L53.2836 18.4227H28.5005L29.1211 31.7643ZM28.8575 18.7634L29.4614 31.7485C29.4935 32.4434 28.9572 33.0346 28.2618 33.0681C27.5667 33.1092 26.9722 32.5582 26.9401 31.8665M26.9401 31.8665L26.2748 17.5604C26.2748 17.5604 26.2748 17.5604 26.2748 17.5604C26.2587 17.2155 26.3846 16.8791 26.6233 16.6298C26.861 16.3809 27.1903 16.2396 27.5355 16.2396H54.2478C54.593 16.2396 54.9223 16.3811 55.16 16.6297C55.3991 16.8792 55.5244 17.2157 55.5085 17.5602L53.6663 57.1684C53.6347 57.8413 53.0799 58.3714 52.4058 58.3714H30.8402C30.1435 58.3714 29.5783 57.8071 29.5783 57.1095C29.5783 56.412 30.1435 55.8476 30.8402 55.8476H51.2016L52.9267 18.7634H28.8575" fill="black"/>
<path d="M37.6682 50.6615H4.50807C3.99939 50.6615 3.58691 51.0734 3.58691 51.5827C3.58691 55.1376 6.47939 58.0305 10.0348 58.0305H32.1415C35.6968 58.0305 38.5894 55.1375 38.5894 51.5827C38.5892 51.0734 38.1769 50.6615 37.6682 50.6615ZM32.1415 56.1882H10.0348C7.81046 56.1882 5.94939 54.6032 5.5218 52.5037H36.6545C36.2266 54.6032 34.3656 56.1882 32.1415 56.1882Z" fill="black"/>
<path fill-rule="evenodd" clip-rule="evenodd" d="M38.9295 51.5828C38.9295 55.3258 35.8844 58.3714 32.141 58.3714H10.0342C6.29062 58.3714 3.24561 55.3259 3.24561 51.5828C3.24561 50.8853 3.81076 50.3209 4.5075 50.3209H37.6677C38.3645 50.3209 38.9294 50.8854 38.9295 51.5828ZM38.5888 51.5828C38.5888 55.1376 35.6962 58.0306 32.141 58.0306H10.0342C6.47881 58.0306 3.58634 55.1378 3.58634 51.5828C3.58634 51.0736 3.99881 50.6617 4.5075 50.6617H37.6677C38.1763 50.6617 38.5887 51.0736 38.5888 51.5828ZM10.0342 55.8476H32.141C34.0526 55.8476 35.6759 54.5821 36.2153 52.8446H5.95984C6.49894 54.5821 8.12227 55.8476 10.0342 55.8476ZM5.60436 52.8446C5.57245 52.7327 5.54468 52.619 5.52122 52.5038H36.6539C36.6305 52.619 36.6027 52.7327 36.5707 52.8446C36.0208 54.7725 34.243 56.1883 32.141 56.1883H10.0342C7.93192 56.1883 6.15411 54.7725 5.60436 52.8446Z" fill="black"/>
<path d="M37.6679 45.1349H4.50775C2.47626 45.1349 0.823242 46.7874 0.823242 48.8194C0.823242 50.8514 2.47612 52.5039 4.50775 52.5039H37.6679C39.6994 52.5039 41.3524 50.8514 41.3524 48.8194C41.3524 46.7874 39.6994 45.1349 37.6679 45.1349ZM37.6679 50.6616H4.50775C3.49173 50.6616 2.66556 49.8349 2.66556 48.8194C2.66556 47.8039 3.49187 46.9772 4.50775 46.9772H37.6679C38.6839 46.9772 39.5101 47.8039 39.5101 48.8194C39.5101 49.8349 38.6838 50.6616 37.6679 50.6616Z" fill="black"/>
<path fill-rule="evenodd" clip-rule="evenodd" d="M4.50766 44.7942H37.6678C39.8874 44.7942 41.6931 46.5992 41.6931 48.8194C41.6931 51.0397 39.8874 52.8447 37.6678 52.8447H4.50766C2.28788 52.8447 0.482422 51.0397 0.482422 48.8194C0.482422 46.5992 2.28802 44.7942 4.50766 44.7942ZM4.50766 50.3209H37.6678C38.4955 50.3209 39.1693 49.6468 39.1693 48.8194C39.1693 47.9921 38.4956 47.318 37.6678 47.318H4.50766C3.68001 47.318 3.0062 47.9921 3.0062 48.8194C3.0062 49.6468 3.67989 50.3209 4.50766 50.3209ZM4.50766 45.1349H37.6678C39.6993 45.1349 41.3523 46.7874 41.3523 48.8194C41.3523 50.8515 39.6993 52.5039 37.6678 52.5039H4.50766C2.47603 52.5039 0.823152 50.8515 0.823152 48.8194C0.823152 46.7874 2.47617 45.1349 4.50766 45.1349ZM4.50766 50.6616H37.6678C38.6837 50.6616 39.51 49.8349 39.51 48.8194C39.51 47.804 38.6838 46.9772 37.6678 46.9772H4.50766C3.49178 46.9772 2.66547 47.804 2.66547 48.8194C2.66547 49.8349 3.49164 50.6616 4.50766 50.6616Z" fill="black"/>
<path d="M40.4307 27.6335C36.228 27.6335 32.5604 30.4727 31.5115 34.5366C31.3841 35.0297 31.6805 35.5315 32.173 35.6593C32.6667 35.7853 33.1679 35.4902 33.2952 34.9972C34.1339 31.746 37.0681 29.4757 40.4307 29.4757C44.4939 29.4757 47.7996 32.7814 47.7996 36.8446C47.7996 40.9079 44.4939 44.2135 40.4307 44.2135C39.5856 44.2135 38.758 44.0724 37.9713 43.7935C37.4923 43.6253 36.9653 43.8745 36.7957 44.3539C36.6257 44.8334 36.8768 45.3596 37.3562 45.5296C38.3409 45.8785 39.3753 46.0558 40.4308 46.0558C45.5101 46.0558 49.6417 41.9235 49.6417 36.8446C49.6417 31.7657 45.5099 27.6335 40.4307 27.6335Z" fill="black"/>
<path fill-rule="evenodd" clip-rule="evenodd" d="M32.1733 35.6593C31.6808 35.5315 31.3843 35.0297 31.5117 34.5367C32.5607 30.4728 36.2283 27.6336 40.4309 27.6336C45.5102 27.6336 49.642 31.7658 49.642 36.8446C49.642 41.9235 45.5103 46.0558 40.4311 46.0558C39.3755 46.0558 38.3411 45.8785 37.3564 45.5296C36.877 45.3596 36.6259 44.8334 36.7959 44.354C36.9655 43.8746 37.4926 43.6254 37.9716 43.7935C38.7582 44.0724 39.5859 44.2135 40.4309 44.2135C44.4942 44.2135 47.7998 40.9079 47.7998 36.8446C47.7998 32.7814 44.4942 29.4758 40.4309 29.4758C37.0684 29.4758 34.1342 31.7461 33.2955 34.9972C33.1681 35.4902 32.667 35.7853 32.1733 35.6593ZM36.4747 44.2403C36.7076 43.5822 37.4298 43.2422 38.0844 43.472L38.0854 43.4723C38.835 43.7381 39.6241 43.8728 40.4309 43.8728C44.306 43.8728 47.4591 40.7197 47.4591 36.8446C47.4591 32.9696 44.306 29.8165 40.4309 29.8165C37.2234 29.8165 34.4252 31.982 33.6254 35.0823L33.6254 35.0824C33.4508 35.7581 32.7639 36.1617 32.089 35.9894L32.0877 35.9891C31.4137 35.8142 31.0073 35.1271 31.1818 34.4515C32.2696 30.2369 36.0731 27.2928 40.4309 27.2928C45.6984 27.2928 49.9827 31.5776 49.9827 36.8446C49.9827 42.1117 45.6985 46.3966 40.4311 46.3966C39.3371 46.3966 38.2642 46.2128 37.2426 45.8508L37.2426 45.8508C36.5861 45.618 36.2419 44.8973 36.4747 44.2403Z" fill="black"/>
<path d="M22.9303 30.3971H19.2458C10.6113 30.3971 3.58691 37.4215 3.58691 46.056C3.58691 46.5651 3.99939 46.9772 4.50807 46.9772H37.6682C38.1769 46.9772 38.5894 46.5652 38.5894 46.056C38.5892 37.4216 31.5648 30.3971 22.9303 30.3971ZM5.45973 45.135C5.93549 37.9441 11.9367 32.2394 19.2458 32.2394H22.9303C30.2394 32.2394 36.2407 37.9441 36.7164 45.135H5.45973Z" fill="black"/>
<path fill-rule="evenodd" clip-rule="evenodd" d="M19.2453 30.0562H22.9298C31.7525 30.0562 38.9294 37.2332 38.9295 46.0558C38.9295 46.7533 38.3644 47.3177 37.6677 47.3177H4.5075C3.81073 47.3177 3.24561 46.7532 3.24561 46.0558C3.24561 37.2331 10.4226 30.0562 19.2453 30.0562ZM5.45915 45.1348H36.7159C36.7083 45.0208 36.6994 44.9072 36.6891 44.794C36.0496 37.7645 30.123 32.2392 22.9298 32.2392H19.2453C12.052 32.2392 6.12544 37.7645 5.48591 44.794C5.47562 44.9072 5.46669 45.0208 5.45915 45.1348ZM5.82809 44.794H36.3469C35.7086 37.953 29.9346 32.5799 22.9298 32.5799H19.2453C12.2404 32.5799 6.46638 37.953 5.82809 44.794ZM19.2453 30.3969H22.9298C31.5643 30.3969 38.5887 37.4214 38.5888 46.0558C38.5888 46.565 38.1763 46.977 37.6677 46.977H4.5075C3.99881 46.977 3.58634 46.5649 3.58634 46.0558C3.58634 37.4213 10.6107 30.3969 19.2453 30.3969Z" fill="black"/>
<path d="M23.8515 35.0023H22.0093V36.8445H23.8515V35.0023Z" fill="black"/>
<path fill-rule="evenodd" clip-rule="evenodd" d="M21.6682 34.6617H24.1919V37.1854H21.6682V34.6617ZM23.8511 35.0025V36.8447H22.0089V35.0025H23.8511Z" fill="black"/>
<path d="M29.3776 39.608H27.5354V41.4502H29.3776V39.608Z" fill="black"/>
<path fill-rule="evenodd" clip-rule="evenodd" d="M27.1951 39.2671H29.7187V41.7907H27.1951V39.2671ZM29.378 39.6078V41.45H27.5358V39.6078H29.378Z" fill="black"/>
<path d="M21.0878 40.5292H19.2456V42.3714H21.0878V40.5292Z" fill="black"/>
<path fill-rule="evenodd" clip-rule="evenodd" d="M18.9048 40.1884H21.4284V42.712H18.9048V40.1884ZM21.0877 40.5291V42.3713H19.2455V40.5291H21.0877Z" fill="black"/>
<path d="M56.0904 12.8959H24.7725C24.2638 12.8959 23.8513 13.3078 23.8513 13.817V17.5015C23.8513 18.0106 24.2638 18.4227 24.7725 18.4227H56.0904C56.5991 18.4227 57.0116 18.0108 57.0116 17.5015V13.817C57.0116 13.3078 56.5991 12.8959 56.0904 12.8959ZM55.1693 16.5802H25.6936V14.7381H55.1693V16.5802Z" fill="black"/>
<path fill-rule="evenodd" clip-rule="evenodd" d="M24.7719 12.5551H56.0899C56.7866 12.5551 57.3518 13.1194 57.3518 13.8169V17.5014C57.3518 18.199 56.7866 18.7633 56.0899 18.7633H24.7719C24.0751 18.7633 23.51 18.1988 23.51 17.5014V13.8169C23.51 13.1194 24.0752 12.5551 24.7719 12.5551ZM26.0338 16.2394H54.828V15.0787H26.0338V16.2394ZM24.7719 12.8958H56.0899C56.5985 12.8958 57.011 13.3077 57.011 13.8169V17.5014C57.011 18.0107 56.5985 18.4226 56.0899 18.4226H24.7719C24.2632 18.4226 23.8507 18.0105 23.8507 17.5014V13.8169C23.8507 13.3077 24.2632 12.8958 24.7719 12.8958ZM55.1687 16.5802V14.738H25.6931V16.5802H55.1687Z" fill="black"/>
<path d="M32.1211 13.6235L29.3577 0.727969C29.2511 0.23143 28.7623 -0.0870023 28.2639 0.0210758C27.7665 0.127265 27.4494 0.617462 27.556 1.11495L30.3194 14.0105C30.4119 14.4423 30.7942 14.7382 31.2194 14.7382C31.2832 14.7382 31.3485 14.7317 31.4132 14.7174C31.9107 14.6112 32.2278 14.1209 32.1211 13.6235Z" fill="black"/>
<path fill-rule="evenodd" clip-rule="evenodd" d="M27.556 1.11494C27.4494 0.617462 27.7665 0.127265 28.2639 0.0210758C28.7623 -0.0870023 29.2511 0.23143 29.3577 0.727969L32.1211 13.6235C32.2278 14.1209 31.9107 14.6112 31.4132 14.7174C31.3485 14.7317 31.2832 14.7382 31.2194 14.7382C30.7942 14.7382 30.4119 14.4423 30.3194 14.0105L27.556 1.11494ZM32.4542 13.552C32.4542 13.5521 32.4542 13.5521 32.4543 13.5521C32.6003 14.233 32.1667 14.9043 31.4855 15.0504" fill="black"/>
</svg>
