<svg width="63" height="63" viewBox="0 0 63 63" fill="none" xmlns="http://www.w3.org/2000/svg">
<path fill-rule="evenodd" clip-rule="evenodd" d="M31.3759 0.0966797C39.6975 0.0966797 47.518 3.33206 53.3921 9.20903C65.5342 21.3511 65.5342 41.1052 53.3921 53.2472C47.4398 59.2024 39.4252 62.3538 31.3064 62.3538C26.8805 62.3538 22.4257 61.4182 18.2577 59.4892C17.0296 58.9968 15.8797 58.5333 15.0542 58.5333C14.1041 58.5391 12.8268 58.9794 11.5929 59.4052C9.06134 60.2741 5.90996 61.3574 3.57829 59.0344C1.2553 56.7085 2.32701 53.5659 3.19016 51.0372C3.61594 49.7917 4.05331 48.5057 4.05331 47.5325C4.05331 46.733 3.66808 45.7135 3.0772 44.245C-2.34793 32.5287 0.160432 18.4083 9.36258 9.21193C15.2367 3.33495 23.0543 0.0966797 31.3759 0.0966797ZM31.3788 4.44141C24.2158 4.44141 17.4872 7.22783 12.4329 12.2851C4.51385 20.1983 2.35887 32.3491 7.06566 42.5244C7.74344 44.2015 8.39805 45.8351 8.39805 47.5325C8.39805 49.2269 7.81585 50.933 7.30317 52.4391C6.88029 53.6788 6.24016 55.55 6.65146 55.9613C7.05408 56.3783 8.93679 55.7208 10.1794 55.2951C11.6711 54.7853 13.3626 54.2002 15.0397 54.1886C16.7197 54.1886 18.304 54.8258 19.9811 55.5007C30.2549 60.251 42.4057 58.0902 50.3218 50.177C60.7666 39.7264 60.7666 22.7269 50.3218 12.2822C45.2645 7.22494 38.5389 4.44141 31.3788 4.44141ZM42.8109 29.5328C44.4098 29.5328 45.7074 30.8276 45.7074 32.4293C45.7074 34.0311 44.4098 35.3258 42.8109 35.3258C41.2121 35.3258 39.9029 34.0311 39.9029 32.4293C39.9029 30.8276 41.186 29.5328 42.7849 29.5328H42.8109ZM31.1995 29.5328C32.7984 29.5328 34.096 30.8276 34.096 32.4293C34.096 34.0311 32.7984 35.3258 31.1995 35.3258C29.6006 35.3258 28.2914 34.0311 28.2914 32.4293C28.2914 30.8276 29.5717 29.5328 31.1734 29.5328H31.1995ZM19.5869 29.5328C21.1858 29.5328 22.4834 30.8276 22.4834 32.4293C22.4834 34.0311 21.1858 35.3258 19.5869 35.3258C17.988 35.3258 16.6788 34.0311 16.6788 32.4293C16.6788 30.8276 17.962 29.5328 19.5608 29.5328H19.5869Z" fill="black"/>
</svg>
