<svg width="45" height="44" viewBox="0 0 45 44" fill="none" xmlns="http://www.w3.org/2000/svg">
<path d="M10.6907 3.27622V17.2821C9.15084 16.3975 7.25053 16.0535 5.23555 16.7579C3.04037 17.5442 1.35303 19.4935 0.959858 21.7869C0.778099 22.8188 0.846032 23.8792 1.15798 24.8795C1.46992 25.8798 2.01682 26.7909 2.75293 27.5366C3.48905 28.2823 4.393 28.8409 5.38921 29.1658C6.38542 29.4907 7.44493 29.5724 8.47918 29.4041C11.69 28.8963 13.9671 25.9477 13.9671 22.6878V6.55244H17.2435C19.0455 6.55244 20.5199 5.07814 20.5199 3.27622C20.5199 1.4743 19.0455 0 17.2435 0H13.9671C12.1651 0 10.6907 1.4743 10.6907 3.27622Z" fill="black" stroke="black"/>
<path d="M21.0194 38.7448C21.0194 41.6483 18.0765 44 14.4504 44C10.8243 44 7.88135 41.6483 7.88135 38.7448C7.88135 35.8439 10.8243 33.4896 14.4504 33.4896C18.0765 33.4896 21.0194 35.8439 21.0194 38.7448ZM44.6678 33.4896C44.6678 36.3931 41.7249 38.7448 38.0988 38.7448C34.4727 38.7448 31.5298 36.3931 31.5298 33.4896C31.5298 30.5861 34.4727 28.2344 38.0988 28.2344C41.7249 28.2344 44.6678 30.5861 44.6678 33.4896Z" fill="black" stroke="black"/>
<path fill-rule="evenodd" clip-rule="evenodd" d="M42.04 33.4896V9.84113H44.6677V33.4896H42.04ZM21.0192 12.4687V38.7448H18.3916V12.4687H21.0192Z" fill="black"/>
<path d="M18.3916 12.2191C18.3916 11.5677 18.6335 10.9395 19.0705 10.4564C19.5075 9.97334 20.1083 9.66977 20.7564 9.60464L41.7773 7.50255C42.1427 7.46583 42.5117 7.5061 42.8606 7.62077C43.2094 7.73545 43.5304 7.92197 43.8027 8.16831C44.075 8.41466 44.2927 8.71535 44.4417 9.051C44.5907 9.38664 44.6677 9.74979 44.6677 10.117V12.4687L18.3916 15.0963V12.2191Z" fill="black"/>
</svg>

