<svg width="12" height="11" viewBox="0 0 12 11" fill="none" xmlns="http://www.w3.org/2000/svg">
<path d="M8.82473 1.62306C9.0518 1.62306 9.23947 1.7918 9.26917 2.01073L9.27326 2.07159L9.27319 9.12847L10.9454 7.4495C11.1202 7.27393 11.4042 7.27327 11.5798 7.44803C11.7394 7.6069 11.7544 7.85605 11.6245 8.03194L11.5812 8.08235L9.14256 10.5323C9.12785 10.5467 9.11289 10.5599 9.09711 10.5719L9.14256 10.5323C9.12055 10.5544 9.09682 10.5737 9.07179 10.5903C9.06306 10.5957 9.05399 10.6013 9.0447 10.6065C9.03609 10.6117 9.02733 10.6163 9.01846 10.6205C9.0097 10.6244 9.00081 10.6283 8.99178 10.6319C8.98031 10.6368 8.96854 10.641 8.95666 10.6447C8.94965 10.6465 8.94247 10.6485 8.93522 10.6504C8.9223 10.6539 8.90932 10.6566 8.89626 10.6587C8.89015 10.6594 8.88374 10.6603 8.87729 10.661C8.86256 10.6631 8.84795 10.6641 8.83333 10.6643C8.83045 10.6641 8.82759 10.6641 8.82473 10.6641L8.81599 10.6643C8.80138 10.6641 8.78677 10.6631 8.77224 10.6614L8.82473 10.6641C8.8003 10.6641 8.77632 10.6621 8.75294 10.6584C8.74001 10.6566 8.72703 10.6539 8.71417 10.6507C8.70737 10.6486 8.70055 10.6467 8.6938 10.6447C8.68094 10.6411 8.66817 10.6366 8.65558 10.6315C8.64868 10.6283 8.64204 10.6254 8.63548 10.6223C8.62514 10.6179 8.61479 10.6126 8.60461 10.6069C8.59543 10.6013 8.58638 10.5957 8.57755 10.5899C8.57064 10.5857 8.56384 10.581 8.55715 10.576L8.55236 10.5719C8.53657 10.5599 8.52161 10.5467 8.50757 10.5327L8.50677 10.5323L6.0681 8.08235C5.89335 7.90678 5.894 7.62279 6.06957 7.44803C6.22918 7.28916 6.47839 7.27526 6.65368 7.40595L6.70388 7.4495L8.37613 9.12967L8.3762 2.07159C8.3762 1.82387 8.57701 1.62306 8.82473 1.62306ZM2.88713 0.00024896L2.89587 0C2.91049 0.00028081 2.92509 0.00127174 2.93963 0.0029728L2.88713 0.00024896C2.91157 0.00024896 2.93555 0.00220282 2.95892 0.00596283C2.9717 0.00771014 2.98454 0.010351 2.99726 0.0135571C3.00474 0.0157513 3.01236 0.0178911 3.0199 0.0202244C3.03168 0.0235447 3.04308 0.0275806 3.05433 0.0320907C3.06246 0.0357128 3.0707 0.0393129 3.0788 0.0431487C3.08844 0.0473133 3.09792 0.052214 3.10726 0.0574754C3.11525 0.0623977 3.12317 0.0671928 3.13092 0.0722208C3.13889 0.0769624 3.14688 0.082512 3.15472 0.0883506L3.20509 0.132022L5.64376 2.58199C5.81852 2.75755 5.81786 3.04155 5.64229 3.2163C5.48269 3.37517 5.23348 3.38907 5.05819 3.25838L5.00798 3.21484L3.33526 1.53397L3.33566 8.59274C3.33566 8.84046 3.13485 9.04127 2.88713 9.04127C2.66006 9.04127 2.4724 8.87253 2.4427 8.65361L2.4386 8.59274L2.43821 1.53457L0.766419 3.21484C0.60755 3.37444 0.358403 3.38949 0.182511 3.25962L0.132105 3.2163C-0.0275004 3.05743 -0.0425523 2.80829 0.087327 2.6324L0.130639 2.58199L2.56931 0.132022L2.59572 0.107803C2.60192 0.102497 2.60827 0.0973576 2.61476 0.0923913L2.56931 0.132022C2.59131 0.109917 2.61504 0.0905866 2.64007 0.07403C2.6488 0.0685899 2.65788 0.0630362 2.66716 0.0578034C2.67578 0.0526099 2.68454 0.0480528 2.69341 0.0438042C2.70217 0.0399278 2.71105 0.0360164 2.72008 0.0323903C2.73155 0.0274844 2.74332 0.0233309 2.75521 0.0196824C2.76244 0.0177399 2.76985 0.0156693 2.77733 0.0137865C2.78938 0.010477 2.80156 0.00794692 2.81381 0.00592633C2.82118 0.00500503 2.82839 0.00400037 2.83567 0.00316963C2.84951 0.00126752 2.86372 0.000303834 2.87793 1.18835e-05C2.88107 0.000279121 2.8841 0.00024896 2.88713 0.00024896Z" fill="white"/>
</svg>
