<svg width="44" height="43" viewBox="0 0 44 43" fill="none" xmlns="http://www.w3.org/2000/svg">
<path fill-rule="evenodd" clip-rule="evenodd" d="M31.2492 0C38.5129 0 43.3947 5.08782 43.3947 12.6584V30.1514C43.3947 37.7219 38.5129 42.8098 31.2492 42.8098H12.6875C5.43456 42.8098 0.563477 37.7219 0.563477 30.1514V12.6584C0.563477 5.08782 5.43456 0 12.6875 0H31.2492ZM31.2492 3.21878H12.6875C7.27785 3.21878 3.78226 6.92467 3.78226 12.6584V30.1514C3.78226 35.8872 7.27785 39.591 12.6875 39.591H31.2492C36.6717 39.591 40.1759 35.8872 40.1759 30.1514V12.6584C40.1759 6.92467 36.6717 3.21878 31.2492 3.21878ZM32.6204 21.6718C32.6339 21.6829 32.6473 21.6939 32.6753 21.72L32.7167 21.7596C32.7251 21.7677 32.7343 21.7767 32.7445 21.7866L32.8643 21.9055C33.2513 22.293 34.3209 23.3854 37.5086 26.6588C38.1288 27.294 38.118 28.3132 37.4807 28.9334C36.8455 29.5578 35.8241 29.5385 35.204 28.9033C35.204 28.9033 30.8071 24.3906 30.4938 24.0859C30.1612 23.8134 29.6269 23.6546 29.1012 23.7061C28.5669 23.7597 28.0862 24.0151 27.745 24.4292C22.758 30.4784 22.6979 30.5363 22.6164 30.6157C20.7753 32.4225 17.8033 32.3925 15.9943 30.5471C15.9943 30.5471 13.9987 28.5214 13.9643 28.4806C13.4686 28.0214 12.5845 28.0514 12.0545 28.6115L8.77136 32.0728C8.45378 32.4075 8.0289 32.5749 7.60402 32.5749C7.20489 32.5749 6.80791 32.429 6.49676 32.1329C5.85086 31.5234 5.82511 30.502 6.43668 29.8604L9.71554 26.3991C11.4515 24.5559 14.3806 24.4657 16.2325 26.2039L18.2882 28.2896C18.8612 28.869 19.7925 28.8797 20.3675 28.3132C20.5843 28.0579 25.2579 22.3821 25.2579 22.3821C26.1463 21.3049 27.3995 20.6397 28.7922 20.5023C30.187 20.38 31.541 20.7856 32.6204 21.6718ZM14.6364 9.93294C17.602 9.93508 20.0118 12.347 20.0118 15.3062C20.0118 18.2696 17.5998 20.6815 14.6364 20.6815C11.673 20.6815 9.26319 18.2696 9.26319 15.3062C9.26319 12.3427 11.673 9.93294 14.6364 9.93294ZM14.6343 13.1517C13.4476 13.1517 12.482 14.1174 12.482 15.3062C12.482 16.495 13.4476 17.4627 14.6364 17.4627C15.8252 17.4627 16.793 16.495 16.793 15.3062C16.793 14.1195 15.8252 13.1539 14.6343 13.1517Z" fill="black"/>
</svg>
