<svg width="50" height="49" viewBox="0 0 50 49" fill="none" xmlns="http://www.w3.org/2000/svg">
<path fill-rule="evenodd" clip-rule="evenodd" d="M47.3585 31.4123C48.367 31.488 49.1215 32.3695 49.0458 33.378L48.5819 39.5047C48.1985 44.5593 43.9325 48.5176 38.8656 48.5176H10.5398C5.47293 48.5176 1.20696 44.5593 0.823588 39.5047L0.359631 33.378C0.283933 32.3695 1.04092 31.488 2.04941 31.4123C3.06279 31.3756 3.93698 32.0911 4.01512 33.102L4.47664 39.2263C4.71594 42.3812 7.37759 44.8548 10.5398 44.8548H38.8656C42.0279 44.8548 44.6919 42.3812 44.9288 39.2263L45.3928 33.102C45.4709 32.0911 46.3671 31.3732 47.3585 31.4123ZM27.8532 0.314697C31.5232 0.314697 34.5637 3.0649 35.0216 6.61237L39.8309 6.6145C44.9491 6.6145 49.11 10.7877 49.11 15.9205V24.3181C49.11 24.9701 48.7633 25.5708 48.2041 25.898C42.1768 29.4277 34.5416 31.4865 26.5337 31.7612L26.5346 36.1532C26.5346 37.1641 25.7141 37.9846 24.7032 37.9846C23.6923 37.9846 22.8718 37.1641 22.8718 36.1532L22.8702 31.7618C14.8705 31.4896 7.23463 29.4304 1.20281 25.898C0.64118 25.5708 0.296875 24.9701 0.296875 24.3181V15.8961C0.296875 10.7779 4.47005 6.6145 9.60043 6.6145L14.3848 6.61237C14.8428 3.0649 17.8832 0.314697 21.5532 0.314697H27.8532ZM39.8309 10.2773H9.60043C6.48948 10.2773 3.95969 12.7973 3.95969 15.8961V23.251C9.75601 26.4004 17.0634 28.1266 24.6693 28.1299L24.7032 28.1267L24.7303 28.1277L25.893 28.1156C33.0863 27.9442 39.9484 26.2376 45.4472 23.251V15.9205C45.4472 12.8071 42.9296 10.2773 39.8309 10.2773ZM27.8532 3.97752H21.5532C19.909 3.97752 18.521 5.09656 18.111 6.61298H31.2954C30.8854 5.09656 29.4975 3.97752 27.8532 3.97752Z" fill="black"/>
</svg>
