<svg width="69" height="80" viewBox="0 0 69 80" fill="none" xmlns="http://www.w3.org/2000/svg">
<path fill-rule="evenodd" clip-rule="evenodd" d="M44.1938 0C44.3668 0 44.5364 0.0145625 44.7014 0.0425276L45.2525 0.045909C46.0741 0.045909 46.8594 0.380158 47.4312 0.972143L67.8285 22.2232C68.3681 22.7829 68.6706 23.536 68.6706 24.3132V61.2256C68.7426 71.3297 60.8737 79.5852 50.7536 79.996L18.4602 80H18.0213C8.15511 79.777 0.24228 71.7977 0.0012155 62.0278L0 18.0833C0.233572 8.09206 8.4851 0.045909 18.4039 0.045909L43.6862 0.0425276C43.8513 0.0145625 44.0209 0 44.1938 0ZM41.1731 6.08495L18.4119 6.08656C11.739 6.08656 6.19771 11.4909 6.04065 18.1558V61.2256C5.89165 68.1241 11.3282 73.8063 18.1582 73.9594H50.6328C57.354 73.6815 62.6778 68.0959 62.6298 61.2498L62.6295 28.1213L54.5354 28.1253C47.1658 28.1051 41.1735 22.0967 41.1735 14.7352L41.1731 6.08495ZM43.4416 54.7741C45.1088 54.7741 46.4619 56.1272 46.4619 57.7944C46.4619 59.4617 45.1088 60.8148 43.4416 60.8148H21.6952C20.028 60.8148 18.6749 59.4617 18.6749 57.7944C18.6749 56.1272 20.028 54.7741 21.6952 54.7741H43.4416ZM35.2065 39.6644C36.8738 39.6644 38.2269 41.0175 38.2269 42.6847C38.2269 44.352 36.8738 45.7051 35.2065 45.7051H21.6916C20.0244 45.7051 18.6713 44.352 18.6713 42.6847C18.6713 41.0175 20.0244 39.6644 21.6916 39.6644H35.2065ZM47.2137 9.47174L47.2141 14.7352C47.2141 18.7784 50.5043 22.0725 54.5435 22.0846L59.3192 22.0806L47.2137 9.47174Z" fill="black"/>
<path fill-rule="evenodd" clip-rule="evenodd" d="M31 19C31 20.0609 30.5786 21.0783 29.8284 21.8284C29.0783 22.5786 28.0609 23 27 23C25.9391 23 24.9217 22.5786 24.1716 21.8284C23.4214 21.0783 23 20.0609 23 19C23 17.9391 23.4214 16.9217 24.1716 16.1716C24.9217 15.4214 25.9391 15 27 15C28.0609 15 29.0783 15.4214 29.8284 16.1716C30.5786 16.9217 31 17.9391 31 19ZM29 19C29 19.5304 28.7893 20.0391 28.4142 20.4142C28.0391 20.7893 27.5304 21 27 21C26.4696 21 25.9609 20.7893 25.5858 20.4142C25.2107 20.0391 25 19.5304 25 19C25 18.4696 25.2107 17.9609 25.5858 17.5858C25.9609 17.2107 26.4696 17 27 17C27.5304 17 28.0391 17.2107 28.4142 17.5858C28.7893 17.9609 29 18.4696 29 19Z" fill="black"/>
<path fill-rule="evenodd" clip-rule="evenodd" d="M27 11C20.925 11 16 15.925 16 22C16 28.075 20.925 33 27 33C33.075 33 38 28.075 38 22C38 15.925 33.075 11 27 11ZM18 22C18 24.09 18.713 26.014 19.908 27.542C20.7472 26.4399 21.8299 25.5467 23.0714 24.9323C24.313 24.3179 25.6797 23.9988 27.065 24C28.4323 23.9987 29.7819 24.3095 31.0109 24.9088C32.2399 25.508 33.316 26.3799 34.157 27.458C35.0234 26.3216 35.6068 24.9952 35.8589 23.5886C36.111 22.182 36.0244 20.7355 35.6065 19.369C35.1886 18.0024 34.4512 16.755 33.4555 15.73C32.4598 14.705 31.2343 13.9319 29.8804 13.4745C28.5265 13.0172 27.0832 12.8888 25.6699 13.1C24.2565 13.3112 22.9138 13.8559 21.7528 14.6891C20.5917 15.5222 19.6458 16.6199 18.9932 17.8912C18.3406 19.1625 18.0002 20.571 18 22ZM27 31C24.9339 31.0031 22.9303 30.2923 21.328 28.988C21.9729 28.0647 22.8313 27.3109 23.8302 26.7907C24.829 26.2705 25.9388 25.9992 27.065 26C28.1772 25.9991 29.2735 26.2636 30.2629 26.7714C31.2524 27.2793 32.1064 28.0159 32.754 28.92C31.1393 30.2667 29.1026 31.0029 27 31Z" fill="black"/>
</svg>
