<svg width="50" height="56" viewBox="0 0 50 56" fill="none" xmlns="http://www.w3.org/2000/svg">
<path d="M47.8678 24.9018H35.9701V12.979C35.9701 12.3803 35.4849 11.8951 34.8863 11.8951H27.6187V9.64915C27.6187 4.46769 23.3537 0.252197 18.1112 0.252197C12.8687 0.252197 8.60362 4.46769 8.60362 9.64915V11.8951H1.33609C0.737457 11.8951 0.252197 12.3803 0.252197 12.979V48.7511C0.252197 52.6091 3.42617 55.7477 7.32744 55.7477H41.8765C45.7778 55.7477 48.9518 52.6091 48.9518 48.7511V25.9857C48.9516 25.3871 48.4664 24.9018 47.8678 24.9018ZM10.7714 9.64915C10.7714 5.6629 14.064 2.41999 18.1112 2.41999C22.1585 2.41999 25.451 5.6629 25.451 9.64915V11.8951H10.7714V9.64915ZM2.41999 48.7511V14.0629H8.60362V21.0075C8.60362 21.6061 9.08888 22.0914 9.68751 22.0914C10.2861 22.0914 10.7714 21.6061 10.7714 21.0075V14.0629H25.451V21.0075C25.451 21.6061 25.9363 22.0914 26.5349 22.0914C27.1336 22.0914 27.6188 21.6061 27.6188 21.0075V14.0629H33.8025V24.9018H21.9049C21.3062 24.9018 20.821 25.3871 20.821 25.9857V48.7511C20.821 50.6217 21.5672 52.3232 22.7808 53.5799H7.32733C4.62138 53.5799 2.41999 51.4137 2.41999 48.7511ZM46.7839 48.7511C46.7839 51.4137 44.5824 53.5799 41.8764 53.5799H27.8962C25.1903 53.5799 22.9888 51.4137 22.9888 48.7511V27.0696H46.7839V48.7511Z" fill="black"/>
<path fill-rule="evenodd" clip-rule="evenodd" d="M36.2225 24.6496H47.8678C48.6058 24.6496 49.2039 25.2478 49.2041 25.9858V48.7512C49.2041 52.7511 45.9145 56 41.8766 56H7.32749C3.28958 56 0 52.7511 0 48.7512V12.979C0 12.2411 0.598197 11.6429 1.33615 11.6429H8.35142V9.6492C8.35142 4.32565 12.7323 0 18.1113 0C23.4903 0 27.871 4.32565 27.871 9.6492V11.6429H34.8863C35.6243 11.6429 36.2225 12.2411 36.2225 12.979V24.6496ZM18.1113 2.6723C14.1997 2.6723 11.0237 5.80587 11.0237 9.6492V11.6429H25.1989V9.6492C25.1989 5.80587 22.0229 2.6723 18.1113 2.6723ZM2.6723 14.3152V48.7512C2.6723 51.2706 4.7569 53.3277 7.32738 53.3277H22.2177C21.1878 52.0793 20.5688 50.4855 20.5688 48.7512V25.9858C20.5688 25.2478 21.167 24.6496 21.9049 24.6496H33.5503V14.3152H27.8712V21.0076C27.8712 21.7455 27.273 22.3437 26.535 22.3437C25.7971 22.3437 25.1989 21.7455 25.1989 21.0076V14.3152H11.0237V21.0076C11.0237 21.7455 10.4255 22.3437 9.68757 22.3437C8.94962 22.3437 8.35142 21.7455 8.35142 21.0076V14.3152H2.6723ZM22.5487 53.3277C21.4728 52.1 20.821 50.4994 20.821 48.7512V25.9858C20.821 25.3872 21.3063 24.9019 21.9049 24.9019H33.8025V14.0629H27.6189V21.0076C27.6189 21.6062 27.1336 22.0915 26.535 22.0915C25.9364 22.0915 25.4511 21.6062 25.4511 21.0076V14.0629H10.7715V21.0076C10.7715 21.6062 10.2862 22.0915 9.68757 22.0915C9.08893 22.0915 8.60367 21.6062 8.60367 21.0076V14.0629H2.42004V48.7512C2.42004 51.4138 4.62144 53.58 7.32738 53.58H22.7808C22.7014 53.4977 22.624 53.4136 22.5487 53.3277ZM41.8765 53.3277C44.447 53.3277 46.5317 51.2706 46.5317 48.7512V27.3219H23.2411V48.7512C23.2411 51.2706 25.3258 53.3277 27.8963 53.3277H41.8765ZM47.8678 24.9019C48.4664 24.9019 48.9517 25.3872 48.9518 25.9858V48.7512C48.9518 52.6091 45.7778 55.7477 41.8766 55.7477H7.32749C3.42623 55.7477 0.252252 52.6091 0.252252 48.7512V12.979C0.252252 12.3804 0.737512 11.8951 1.33615 11.8951H8.60367V9.6492C8.60367 4.46774 12.8688 0.252252 18.1113 0.252252C23.3538 0.252252 27.6188 4.46774 27.6188 9.6492V11.8951H34.8863C35.485 11.8951 35.9702 12.3804 35.9702 12.979V24.9019H47.8678ZM18.1113 2.42005C14.064 2.42005 10.7715 5.66295 10.7715 9.6492V11.8951H25.4511V9.6492C25.4511 5.66295 22.1586 2.42005 18.1113 2.42005ZM41.8765 53.58C44.5824 53.58 46.7839 51.4138 46.7839 48.7512V27.0697H22.9888V48.7512C22.9888 51.4138 25.1903 53.58 27.8963 53.58H41.8765Z" fill="black"/>
<path d="M34.8862 40.6533C38.7222 40.6533 41.8428 37.5326 41.8428 33.6968V30.7322C41.8428 30.1336 41.3575 29.6483 40.7589 29.6483C40.1603 29.6483 39.675 30.1336 39.675 30.7322V33.6968C39.675 36.3373 37.5267 38.4855 34.8862 38.4855C32.2458 38.4855 30.0975 36.3374 30.0975 33.6968V30.7322C30.0975 30.1336 29.6122 29.6483 29.0136 29.6483C28.4149 29.6483 27.9297 30.1336 27.9297 30.7322V33.6968C27.9298 37.5326 31.0504 40.6533 34.8862 40.6533Z" fill="black"/>
<path fill-rule="evenodd" clip-rule="evenodd" d="M27.6777 33.697V30.7324C27.6777 29.9944 28.2759 29.3962 29.0139 29.3962C29.7518 29.3962 30.35 29.9944 30.35 30.7324V33.697C30.35 36.1982 32.3854 38.2335 34.8865 38.2335C37.3877 38.2335 39.4231 36.1981 39.4231 33.697V30.7324C39.4231 29.9944 40.0212 29.3962 40.7592 29.3962C41.4972 29.3962 42.0954 29.9944 42.0954 30.7324V33.697C42.0954 37.6721 38.8618 40.9058 34.8865 40.9058C30.9114 40.9058 27.6778 37.6721 27.6777 33.697ZM41.8431 33.697C41.8431 37.5328 38.7225 40.6535 34.8865 40.6535C31.0507 40.6535 27.9301 37.5328 27.93 33.697V30.7324C27.93 30.1338 28.4152 29.6485 29.0139 29.6485C29.6125 29.6485 30.0978 30.1338 30.0978 30.7324V33.697C30.0978 36.3375 32.2461 38.4857 34.8865 38.4857C37.527 38.4857 39.6753 36.3374 39.6753 33.697V30.7324C39.6753 30.1338 40.1606 29.6485 40.7592 29.6485C41.3578 29.6485 41.8431 30.1338 41.8431 30.7324V33.697Z" fill="black"/>
</svg>
