<svg width="61" height="60" viewBox="0 0 61 60" fill="none" xmlns="http://www.w3.org/2000/svg">
<path fill-rule="evenodd" clip-rule="evenodd" d="M15.9599 51.2198C18.1172 51.2198 19.8727 52.9722 19.8727 55.1295C19.8727 57.2869 18.1172 59.0424 15.9599 59.0424C13.8025 59.0424 12.0501 57.2869 12.0501 55.1295C12.0501 52.9722 13.8025 51.2198 15.9599 51.2198ZM50.043 51.2198C52.2034 51.2198 53.9589 52.9722 53.9589 55.1295C53.9589 57.2869 52.2034 59.0424 50.043 59.0424C47.8857 59.0424 46.1332 57.2869 46.1332 55.1295C46.1332 52.9722 47.8857 51.2198 50.043 51.2198ZM3.04063 0.0286649L9.3253 1.1164C10.3375 1.29466 11.108 2.13463 11.1956 3.16194L11.9056 11.6251L14.546 11.6262C14.9768 11.6264 15.4031 11.6266 15.8249 11.6268L20.6722 11.6291C21.0586 11.6293 21.4407 11.6295 21.8185 11.6297L27.1707 11.6326C27.5069 11.6328 27.8392 11.633 28.1674 11.6332L31.918 11.6356C32.2152 11.6358 32.5085 11.636 32.7981 11.6362L36.097 11.6386C36.3575 11.6389 36.6144 11.6391 36.8678 11.6393L39.7441 11.6417C39.9703 11.6419 40.1933 11.6421 40.4129 11.6424L42.3034 11.6442C42.504 11.6444 42.7014 11.6447 42.8959 11.6449L45.0851 11.6474C45.2558 11.6476 45.4237 11.6478 45.5887 11.648L47.4372 11.6506C47.5805 11.6508 47.7212 11.6511 47.8593 11.6513L49.0341 11.6532C49.1572 11.6535 49.2779 11.6537 49.3962 11.6539L50.7048 11.6565C50.8048 11.6568 50.9027 11.657 50.9985 11.6572L51.8039 11.6592C51.8872 11.6595 51.9686 11.6597 52.0481 11.6599L52.9115 11.6626C52.9762 11.6629 53.0392 11.6631 53.1004 11.6633L53.6074 11.6654C53.6589 11.6656 53.7089 11.6658 53.7574 11.6661L54.2702 11.6689C54.3075 11.6691 54.3434 11.6693 54.3781 11.6696L54.6576 11.6717C54.6852 11.6719 54.7116 11.6722 54.737 11.6724L54.9382 11.6746C54.9577 11.6748 54.9762 11.675 54.9939 11.6753L55.1308 11.6774C55.1437 11.6777 55.1559 11.6779 55.1674 11.6782L55.254 11.6804C55.2619 11.6806 55.2693 11.6808 55.2762 11.6811L55.3389 11.6841C55.3428 11.6843 55.3463 11.6845 55.3496 11.6848C55.3791 11.6875 55.3834 11.688 55.3877 11.6885C57.0707 11.9333 58.5512 12.8125 59.5604 14.1662C60.5696 15.5168 60.9926 17.1816 60.7509 18.8495L57.8835 38.6643C57.3426 42.4351 54.0673 45.2783 50.2603 45.2783H17.2627C13.2834 45.2783 9.91449 42.1722 9.59119 38.199L6.82352 5.28301L2.27015 4.49743C1.03437 4.27988 0.209506 3.11057 0.42101 1.87479C0.638556 0.639003 1.83204 -0.16471 3.04063 0.0286649ZM13.9398 16.1583L12.2864 16.1573L14.1083 37.8274C14.2412 39.4952 15.6039 40.7461 17.2688 40.7461H50.2542C51.8284 40.7461 53.173 39.5738 53.3966 38.0177L56.267 18.1998C56.3334 17.7285 56.2156 17.2571 55.9286 16.8764C55.6446 16.4927 55.2276 16.2449 54.7562 16.1785C54.7345 16.1793 54.6823 16.1801 54.6012 16.1808L54.2725 16.1826C54.2038 16.1829 54.1282 16.1832 54.0459 16.1834L52.3342 16.186C52.1898 16.1861 52.0396 16.1862 51.8839 16.1863L47.8594 16.1861C47.6348 16.186 47.406 16.186 47.1731 16.1858L42.5802 16.1831C42.305 16.1829 42.0268 16.1826 41.7458 16.1824L39.1469 16.1804C38.8509 16.1801 38.5527 16.1799 38.2524 16.1796L35.4996 16.1772C35.1887 16.1769 34.8763 16.1766 34.5626 16.1763L32.6664 16.1746C32.3482 16.1743 32.0292 16.174 31.7093 16.1737L28.8156 16.171C28.493 16.1707 28.1701 16.1704 27.8473 16.1701L25.9116 16.1683C25.5895 16.168 25.2677 16.1677 24.9465 16.1674L23.0272 16.1657C22.7089 16.1654 22.3916 16.1651 22.0753 16.1648L19.2638 16.1624C18.9558 16.1621 18.6495 16.1619 18.3451 16.1616L14.792 16.1589C14.5053 16.1587 14.2212 16.1585 13.9398 16.1583ZM45.4014 22.7934C46.6523 22.7934 47.6675 23.8086 47.6675 25.0595C47.6675 26.3104 46.6523 27.3256 45.4014 27.3256H37.0259C35.772 27.3256 34.7598 26.3104 34.7598 25.0595C34.7598 23.8086 35.772 22.7934 37.0259 22.7934H45.4014Z" fill="black"/>
</svg>
