<svg width="49" height="49" viewBox="0 0 49 49" fill="none" xmlns="http://www.w3.org/2000/svg">
<path fill-rule="evenodd" clip-rule="evenodd" d="M35.1052 0C43.4151 0 49 5.8235 49 14.4888V34.5112C49 43.1765 43.4151 49 35.1052 49H13.8702C5.57265 49 0 43.1765 0 34.5112V14.4888C0 5.8235 5.57265 0 13.8702 0H35.1052ZM35.1052 3.68421H13.8702C7.68142 3.68421 3.68237 7.92595 3.68237 14.4888V34.5112C3.68237 41.0765 7.68142 45.3158 13.8702 45.3158H35.1052C41.3087 45.3158 45.3176 41.0765 45.3176 34.5112V14.4888C45.3176 7.92595 41.3087 3.68421 35.1052 3.68421Z" fill="black"/>
<path d="M22.4921 18.1483C22.7055 17.3896 22.8477 16.6308 23.1323 15.9432C24.9224 11.6398 30.3165 10.1698 34.0627 12.932C34.2998 13.098 34.5013 13.1929 34.8096 13.1454C35.8291 12.9795 36.8487 12.849 37.8326 12.446C38.8996 12.0192 40.014 12.9676 39.8125 14.082C39.5872 15.2794 39.279 16.4649 38.5321 17.4726C38.0935 18.0772 37.6785 18.7055 37.2992 19.3457C37.1332 19.6302 36.9909 19.9859 36.9672 20.3178C36.7301 23.9573 35.4853 27.2294 33.2447 30.0983C30.5891 33.4889 27.1156 35.5991 22.8714 36.3934C19.6468 36.998 16.4459 36.8202 13.3517 35.6703C12.1544 35.2198 11.0281 34.6151 9.89004 34.0105C9.2143 33.6549 8.95348 32.9317 9.15502 32.256C9.33285 31.6751 9.87818 31.1297 10.7199 31.1771C11.8461 31.2246 12.9842 31.2601 14.0986 30.9993C14.7507 30.8452 15.379 30.6318 16.0192 30.4421C16.0192 30.4066 16.031 30.3591 16.031 30.3236C15.8887 30.205 15.7346 30.0865 15.5924 29.9679C14.0038 28.7468 12.6049 27.3479 11.5616 25.6289C10.6132 24.064 10.1509 22.3687 10.1983 20.5312C10.2457 18.4328 10.3405 16.3463 10.874 14.3072C10.9214 14.1176 10.9807 13.9279 11.04 13.7382C11.4905 12.446 12.7708 12.1852 13.7548 13.1573C14.6084 13.999 15.462 14.8763 16.4104 15.5995C18.1531 16.9391 20.1685 17.7452 22.3261 18.1602C22.3972 18.1602 22.4802 18.1483 22.4921 18.1483ZM13.4466 17.188C13.3992 17.7334 13.328 18.1839 13.3162 18.6344C13.3043 19.6895 13.2213 20.7564 13.3517 21.7878C13.5414 23.3053 14.3831 24.5382 15.4027 25.6526C16.6356 27.0041 18.1175 28.0592 19.6824 28.9958C20.7849 29.6478 20.8561 30.94 19.801 31.6632C18.9474 32.2441 18.0108 32.7065 17.1217 33.2281C17.0268 33.2874 16.932 33.3348 16.766 33.4296C18.7221 33.7616 20.5834 33.7379 22.4446 33.3703C26.2857 32.5998 29.2969 30.5725 31.4546 27.3005C32.9483 25.0243 33.8138 22.5229 33.9204 19.7843C33.9442 19.0612 34.1575 18.4565 34.5843 17.8756C34.9874 17.3303 35.3431 16.7494 35.7817 16.0974C35.2364 16.1803 34.7859 16.2278 34.3354 16.2989C33.7782 16.3937 33.2921 16.2752 32.8416 15.8958C32.4978 15.5995 32.1422 15.3031 31.7391 15.0897C30.2335 14.3191 28.7397 14.3902 27.3645 15.3623C25.9419 16.37 25.3847 17.7927 25.7404 19.5354C25.9656 20.626 25.1713 21.5152 24.0688 21.444C20.6664 21.2069 17.5603 20.1518 14.7744 18.1957C14.3476 17.8875 13.9445 17.5674 13.4466 17.188Z" fill="black"/>
</svg>
