<svg width="55" height="41" viewBox="0 0 55 41" fill="none" xmlns="http://www.w3.org/2000/svg">
<path fill-rule="evenodd" clip-rule="evenodd" d="M15.875 0.588702L17.0972 0.59027C17.3061 0.590565 17.5173 0.590876 17.7305 0.591201L19.0294 0.593305C21.8793 0.59817 24.9149 0.604843 27.2284 0.609652L28.2417 0.611725C28.4009 0.612044 28.555 0.612349 28.7036 0.612638C34.5501 0.202088 39.8274 4.54144 40.2978 10.3645C40.3021 10.4242 40.306 10.7632 40.3092 11.3797L45.703 6.96239C47.2724 5.67617 49.3849 5.42412 51.2168 6.2894C53.0487 7.15987 54.1868 8.95797 54.1842 10.9847L54.153 30.0805C54.1504 32.1073 53.0097 33.9054 51.1804 34.768C50.4633 35.1084 49.7045 35.2721 48.951 35.2721C47.7791 35.2721 46.6228 34.8694 45.6692 34.0872L40.3212 29.6497C40.3212 29.7249 40.3212 29.8004 40.3211 29.876C40.4303 32.6199 39.4533 35.2625 37.5668 37.3153C35.5842 39.4745 32.8507 40.7296 29.8729 40.8517C29.8224 40.8553 29.5378 40.8578 29.0708 40.8593L28.0442 40.8611C27.6438 40.8614 27.1888 40.8614 26.6905 40.8612L24.4924 40.8591C24.2944 40.8588 24.0932 40.8585 23.8892 40.8582L22.6357 40.8563C19.6492 40.8512 16.285 40.8434 13.6768 40.8377L12.6086 40.8354C12.2702 40.8347 11.9505 40.8341 11.6528 40.8335C11.3774 40.8543 11.102 40.8647 10.8265 40.8647C5.33348 40.8673 0.542003 36.6579 0.0898785 31.1362L0.0894739 31.1306L0.0870463 31.0791C0.0868644 31.0735 0.0866789 31.0673 0.08649 31.0605L0.0847058 30.9786C0.0844988 30.967 0.0842893 30.9545 0.0840773 30.941L0.0821112 30.7897C0.081887 30.7693 0.081661 30.7477 0.0814337 30.7247L0.0793549 30.4791C0.0791211 30.4472 0.0788865 30.4137 0.0786514 30.3786L0.0772372 30.1465C0.0770012 30.1042 0.0767652 30.06 0.0765294 30.0139L0.0744204 29.5436C0.0741882 29.4849 0.073957 29.4241 0.073727 29.3609L0.0716959 28.7281C0.0714753 28.6504 0.0712566 28.5701 0.07104 28.4871L0.0691562 27.667C0.0689548 27.5674 0.0687563 27.465 0.0685609 27.3595L0.0663821 25.9449C0.0662156 25.8141 0.0660532 25.68 0.0658952 25.5425L0.063879 23.2126C0.0637702 23.0387 0.063667 22.861 0.0635696 22.6794L0.0635325 12.499C0.0636439 12.1902 0.0637645 11.8763 0.0638944 11.5572C-0.0608296 8.8782 0.910978 6.21742 2.80782 4.14648C4.78781 1.9846 7.51875 0.72437 10.4991 0.597047C10.5393 0.59416 10.7292 0.591979 11.0424 0.590396L11.6015 0.588458C11.709 0.588206 11.8234 0.587987 11.9442 0.587801L15.2912 0.588084C15.4824 0.58827 15.6771 0.588476 15.875 0.588702ZM28.8439 4.50506C25.5633 4.5003 21.552 4.49457 18.1288 4.49083L16.3278 4.489C16.04 4.48874 15.7591 4.48849 15.486 4.48827L10.9671 4.48842C10.7971 4.48919 10.6871 4.49034 10.6446 4.49207C8.72701 4.57262 6.95749 5.38593 5.68167 6.77868C4.49159 8.08048 3.87837 9.74347 3.95892 11.4688L3.96107 21.5064C3.96118 21.728 3.9613 21.948 3.96143 22.1663L3.96381 25.2689C3.964 25.462 3.9642 25.6518 3.96441 25.8381L3.96574 26.9115C3.96598 27.0826 3.96623 27.2496 3.96649 27.4122L3.96901 28.7503C3.97178 29.955 3.97528 30.7364 3.97971 30.8868C4.27593 34.4856 7.64867 37.2373 11.5099 36.9411C11.9182 36.9417 12.3378 36.9423 12.7661 36.943L14.0745 36.9451C15.1824 36.9469 16.3289 36.9488 17.4747 36.9508L18.8467 36.953C19.53 36.9542 20.2073 36.9553 20.8701 36.9563L22.174 36.9583C22.3872 36.9586 22.5982 36.9589 22.8066 36.9592L24.0241 36.9608C24.2211 36.961 24.4149 36.9612 24.6051 36.9614L29.1925 36.9614C29.4926 36.9603 29.6811 36.9588 29.7378 36.9567C31.6476 36.8787 33.4198 36.068 34.6956 34.6779C35.8883 33.3813 36.5015 31.7183 36.4261 30.0007L36.4239 29.9578L36.4234 17.3914C36.4232 17.1873 36.4231 16.9858 36.423 16.7873L36.421 14.5635C36.4208 14.3929 36.4206 14.2264 36.4204 14.0643L36.4182 12.7303C36.4174 12.33 36.4164 11.9766 36.4154 11.6779L36.4132 11.1556C36.4117 10.8591 36.4099 10.669 36.4079 10.6035C36.1143 6.98655 32.726 4.20105 28.8439 4.50506ZM48.1715 9.97915L40.3202 16.385C40.3205 16.7043 40.3207 17.0361 40.321 17.3806L40.3227 23.8965L48.1403 31.0757C48.7146 31.5434 49.2914 31.3511 49.5149 31.242C49.7383 31.138 50.2554 30.8132 50.2554 30.0753L50.2866 10.9795C50.2892 10.2416 49.7695 9.91678 49.546 9.81025C49.3252 9.70631 48.7405 9.51143 48.1715 9.97915Z" fill="black"/>
</svg>
