<svg width="22" height="16" viewBox="0 0 22 16" fill="none" xmlns="http://www.w3.org/2000/svg">
<g id="Group">
<path id="Vector" d="M11.3334 16C4.22719 16 0.666748 8.89067 0.666748 8C0.666748 7.10933 4.22719 0 11.3334 0C18.4396 0 22.0001 7.10933 22.0001 8C22.0001 8.89067 18.4396 16 11.3334 16ZM2.00986 8C2.25853 8.82156 5.33275 14.6667 11.3334 14.6667C17.3341 14.6667 20.4083 8.82156 20.657 8C20.4083 7.17844 17.3341 1.33333 11.3334 1.33333C5.33275 1.33333 2.25853 7.17844 2.00986 8ZM11.3334 12.6667C8.76053 12.6667 6.66675 10.5733 6.66675 8C6.66675 5.42667 8.76053 3.33333 11.3334 3.33333C13.9063 3.33333 16.0001 5.42667 16.0001 8C16.0001 10.5733 13.9063 12.6667 11.3334 12.6667ZM11.3334 4.66667C9.49541 4.66667 8.00008 6.162 8.00008 8C8.00008 9.838 9.49541 11.3333 11.3334 11.3333C13.1714 11.3333 14.6667 9.838 14.6667 8C14.6667 6.162 13.1714 4.66667 11.3334 4.66667Z" fill="#B3B2B2"/>
</g>
</svg>
