<svg width="41" height="35" viewBox="0 0 41 35" fill="none" xmlns="http://www.w3.org/2000/svg">
<path d="M2.07732 7.89552C1.52597 8.32649 1.46559 9.12045 1.92153 9.64858C12.5856 0.566605 28.2777 0.566605 38.9418 9.64858C39.3977 9.12045 39.3373 8.32649 38.786 7.89551C28.0137 -0.524855 12.8496 -0.524855 2.07732 7.89552Z" fill="black"/>
<path d="M6.63708 15.5701C6.11328 16.0331 6.11477 16.8301 6.60904 17.3237C14.2474 9.71335 26.6139 9.71335 34.2524 17.3237C34.7466 16.8301 34.7481 16.0331 34.2243 15.57C26.362 8.61927 14.4995 8.61927 6.63708 15.5701Z" fill="black"/>
<path d="M11.9593 22.666L12.8509 23.5563C17.0399 19.3831 23.8215 19.3831 28.0105 23.5563L28.9021 22.666C24.2203 18.0019 16.6411 18.0019 11.9593 22.666Z" fill="black"/>
<path d="M22.6603 28.8986C21.4279 27.6716 19.4335 27.6716 18.2011 28.8986C16.97 30.1282 16.9702 32.1215 18.2016 33.3508C19.433 34.58 21.4293 34.5798 22.6603 33.3502C23.8912 32.1208 23.8912 30.128 22.6603 28.8986ZM21.7687 32.461C21.0297 33.1985 19.832 33.1981 19.0935 32.4602C18.355 31.7223 18.3554 30.5263 19.0944 29.7889C19.833 29.0519 21.0301 29.0519 21.7687 29.7889C22.5059 30.5275 22.5059 31.7224 21.7687 32.461Z" fill="black"/>
<path fill-rule="evenodd" clip-rule="evenodd" d="M0.589489 9.11751C0.353786 8.84449 0.385667 8.43542 0.660919 8.20101C12.0502 -1.49848 28.813 -1.49848 40.2024 8.20101C40.4776 8.43542 40.5095 8.84449 40.2738 9.11751L39.4508 10.0708C39.2104 10.3493 38.7854 10.3814 38.5046 10.1423C28.0913 1.27384 12.772 1.27384 2.35864 10.1423C2.07785 10.3814 1.65292 10.3493 1.41247 10.0708L0.589489 9.11751ZM5.24182 16.8916C4.98718 16.6373 4.9874 16.2287 5.24231 15.9747C13.6344 7.61259 27.227 7.61258 35.6191 15.9747C35.874 16.2287 35.8742 16.6373 35.6196 16.8916L34.728 17.7818C34.4666 18.0428 34.0389 18.0431 33.7773 17.7824C26.3999 10.4323 14.4614 10.4323 7.08415 17.7824C6.82246 18.0431 6.3948 18.0428 6.13341 17.7818L5.24182 16.8916ZM11.4836 23.1242C11.229 22.8699 11.2292 22.4613 11.4842 22.2073C16.4272 17.283 24.4342 17.283 29.3772 22.2073C29.6322 22.4613 29.6324 22.8699 29.3778 23.1242L28.4862 24.0145C28.2248 24.2755 27.7972 24.2757 27.5355 24.015C23.6076 20.102 17.2538 20.102 13.3259 24.015C13.0642 24.2757 12.6366 24.2755 12.3752 24.0145L11.4836 23.1242ZM23.136 28.4405C24.6215 29.9242 24.6215 32.3246 23.136 33.8083C21.6437 35.2988 19.2188 35.2991 17.7261 33.809C16.2399 32.3254 16.2396 29.9245 17.7254 28.4405C19.2189 26.9535 21.6425 26.9535 23.136 28.4405ZM19.0935 32.4602C19.832 33.1981 21.0297 33.1985 21.7687 32.461C22.5059 31.7224 22.5059 30.5275 21.7687 29.7889C21.0301 29.0519 19.833 29.0519 19.0944 29.7889C18.3554 30.5263 18.355 31.7223 19.0935 32.4602ZM18.2011 28.8986C19.4335 27.6716 21.4279 27.6716 22.6603 28.8986C23.8912 30.128 23.8912 32.1208 22.6603 33.3502C21.4293 34.5798 19.433 34.58 18.2016 33.3508C16.9702 32.1215 16.97 30.1282 18.2011 28.8986ZM21.2931 32.0029C21.7757 31.5185 21.7756 30.7309 21.2927 30.2467C20.8153 29.7709 20.047 29.7711 19.5699 30.2472C19.0857 30.7303 19.0854 31.5187 19.5693 32.0021C20.0465 32.479 20.8154 32.4793 21.2931 32.0029ZM1.92153 9.64858C2.08975 9.50532 2.25921 9.36432 2.42989 9.22558C12.9088 0.707606 27.9545 0.707607 38.4334 9.22558C38.6041 9.36431 38.7736 9.50534 38.9418 9.64858C39.3977 9.12045 39.3373 8.32649 38.786 7.89551C28.0137 -0.524855 12.8496 -0.524855 2.07732 7.89552C1.52597 8.32649 1.46559 9.12045 1.92153 9.64858ZM6.60904 17.3237C6.76558 17.1677 6.9241 17.0149 7.08453 16.8654C14.5919 9.86612 26.2694 9.86612 33.7769 16.8654C33.9373 17.0149 34.0958 17.1677 34.2524 17.3237C34.7466 16.8301 34.7481 16.0331 34.2243 15.57C26.362 8.61927 14.4995 8.61927 6.63708 15.5701C6.11328 16.0331 6.11477 16.8301 6.60904 17.3237ZM12.8509 23.5563C12.9379 23.4696 13.0261 23.3847 13.1153 23.3015C17.2314 19.468 23.63 19.468 27.7461 23.3016C27.8353 23.3847 27.9235 23.4696 28.0105 23.5563L28.9021 22.666C28.8049 22.5692 28.7064 22.4743 28.6067 22.3814C28.5455 22.3244 28.4838 22.2682 28.4217 22.2126C23.8786 18.1531 16.9828 18.1531 12.4397 22.2126C12.3776 22.2681 12.3159 22.3244 12.2547 22.3814C12.155 22.4743 12.0565 22.5691 11.9593 22.666L12.8509 23.5563Z" fill="black"/>
</svg>
