<svg width="80" height="80" viewBox="0 0 80 80" fill="none" xmlns="http://www.w3.org/2000/svg">
<path fill-rule="evenodd" clip-rule="evenodd" d="M57.3146 0C70.8817 0 80 9.50775 80 23.6551V56.3448C80 70.4922 70.8817 80 57.3146 80H22.6453C9.09821 80 0 70.4922 0 56.3448V23.6551C0 9.50775 9.09821 0 22.6453 0H57.3146ZM57.3146 6.01503H22.6453C12.5411 6.01503 6.01203 12.9403 6.01203 23.6551V56.3448C6.01203 67.0636 12.5411 73.9849 22.6453 73.9849H57.3146C67.4428 73.9849 73.988 67.0636 73.988 56.3448V23.6551C73.988 12.9403 67.4428 6.01503 57.3146 6.01503Z" fill="black"/>
<path d="M25.0004 18.3329C36.9334 25.131 48.7001 31.8252 60.6539 38.644C48.6793 45.4629 36.9126 52.1571 25.0004 58.9552C25.0004 45.359 25.0004 31.9499 25.0004 18.3329ZM47.8478 38.644C42.2555 35.4633 36.8502 32.3865 31.2995 29.2265C31.2995 35.5672 31.2995 41.7208 31.2995 48.0616C36.8502 44.9016 42.2555 41.8248 47.8478 38.644Z" fill="black"/>
</svg>
